<?xml version="1.0" encoding="UTF-8" standalone="no"?>
<!-- Created with Inkscape (http://www.inkscape.org/) -->

<svg
   version="1.1"
   id="svg1"
   width="1024"
   height="1024"
   viewBox="0 0 1024 1024"
   xmlns="http://www.w3.org/2000/svg"
   xmlns:svg="http://www.w3.org/2000/svg">
  <defs
     id="defs1" />
  <g
     id="g1">
    <path
       style="fill:#000000"
       d="m 787,910.91022 c -4.675,-0.44949 -14.125,-1.95176 -21,-3.33836 -14.69628,-2.96408 -24.89508,-4.20172 -42,-5.09676 -20.89293,-1.09326 -25.04686,-2.80421 -27.15735,-11.18571 C 696.24861,888.93023 695.4708,887 695.1142,887 c -0.35661,0 -6.63115,2.01582 -13.94342,4.4796 -19.87885,6.69792 -34.37284,7.68802 -51.67078,3.52969 -2.2,-0.52887 -5.67167,-0.97231 -7.71482,-0.98543 -2.63307,-0.0169 -4.01625,-0.58711 -4.75,-1.95812 C 616.46583,891.0019 616,884.76259 616,878.2006 c 0,-15.28844 0.10798,-15.43814 14.94921,-20.72539 L 642.10756,853.5 641.54443,848 c -0.30971,-3.025 -1.93815,-24.175 -3.61875,-47 -1.68059,-22.825 -3.58889,-48.7 -4.24065,-57.5 L 632.5,727.5 619,726.79244 c -7.425,-0.38916 -36,-1.64012 -63.5,-2.7799 -27.5,-1.13979 -81.05,-3.40647 -119,-5.03708 C 334.49103,714.59241 246.34576,711 240.81006,711 c -3.03109,0 -5.01492,0.47245 -5.24878,1.25 -0.87808,2.91952 -13.60357,73.75816 -14.1916,79 l -0.64504,5.75 8.38768,0.0526 c 9.60348,0.0602 22.44511,2.10617 24.19846,3.85533 1.45178,1.4483 2.18823,28.91506 0.83022,30.96356 -0.98733,1.48933 -9.24548,4.00525 -63.141,19.23651 -42.89692,12.12297 -46.37054,12.72015 -63.63695,10.94034 -7.07468,-0.72925 -13.92672,-1.4322 -15.22676,-1.5621 -1.30004,-0.1299 -2.75565,-0.85495 -3.23469,-1.61122 -0.47903,-0.75627 -0.87787,-7.76244 -0.88629,-15.56927 -0.0204,-18.94803 -1.41172,-17.56402 24.98469,-24.85419 11.275,-3.11393 20.82826,-5.96517 21.22946,-6.33609 0.4012,-0.37092 4.80816,-24.73614 9.79325,-54.14494 4.98509,-29.4088 10.38786,-60.86451 12.00616,-69.90159 1.6183,-9.03708 2.81812,-16.55529 2.66628,-16.70714 -0.15185,-0.15184 -10.15788,-0.72405 -22.23562,-1.27156 C 135.79496,669.15348 134.3968,668.96751 132.75,666.9366 131.19692,665.02129 131,662.19737 131,641.84147 V 618.9045 l 2.45771,-2.27772 c 2.07764,-1.92549 6.29168,-2.93004 27.25,-6.49588 13.63576,-2.31998 26.46633,-4.48021 28.51237,-4.80051 l 3.72009,-0.58236 -3.42473,-4.00103 c -5.24418,-6.12664 -11.21444,-18.47189 -14.21378,-29.39113 -2.35175,-8.56164 -2.70481,-11.69429 -2.68861,-23.85587 0.0159,-11.91234 0.41309,-15.49119 2.66374,-24 6.55596,-24.78538 19.31327,-47.89843 35.99413,-65.21234 C 221.48628,447.68462 227.30208,443 230.25004,443 c 1.07248,0 3.43964,1.48968 5.26036,3.3104 3.13987,3.13987 4.51834,6.58979 5.91456,14.80249 0.61095,3.59367 0.64561,3.61573 6.51556,4.148 3.24573,0.29431 12.55868,2.00569 20.69544,3.80306 l 14.79411,3.26794 10.03496,-1.68712 c 5.51924,-0.92791 11.60997,-1.6801 13.53497,-1.67152 1.925,0.009 5.23992,-0.46752 7.36649,-1.058 2.12658,-0.59047 4.90191,-0.81372 6.16741,-0.4961 3.38875,0.85052 6.79943,7.00559 6.79943,12.27054 0,4.06243 0.42858,4.80597 5.37701,9.32856 4.47166,4.08684 5.84437,4.82081 8.15274,4.35913 3.60409,-0.72081 9.2183,1.67069 15.74778,6.70815 7.18064,5.53982 8.76956,9.23671 8.08782,18.81767 -0.2973,4.17824 -0.82044,8.4968 -1.16254,9.5968 -0.42575,1.369 -0.004,2.38045 1.33668,3.20586 1.80666,1.11227 2.43089,0.33955 8.04293,-9.95624 3.34634,-6.13915 6.07492,-12.08178 6.06352,-13.20585 -0.0114,-1.12408 -0.94024,-7.44377 -2.06408,-14.04377 -3.21127,-18.85892 -3.5573,-41.69205 -1.02758,-67.80527 C 377.04942,414.70183 378,402.20915 378,398.93322 v -5.95623 l -5.46876,4.45436 c -12.57992,10.24649 -34.74321,21.13836 -48.8906,24.02668 -24.67713,5.03807 -59.4771,3.32787 -81.14064,-3.98755 -42.72653,-14.42804 -71.88018,-48.68962 -82.75715,-97.25681 -2.96462,-13.23746 -3.207,-49.77891 -0.42178,-63.58767 5.35614,-26.55499 16.38314,-48.26216 34.29004,-67.50156 18.94014,-20.34954 40.12579,-31.94584 69.11899,-37.83336 13.32323,-2.70549 43.26658,-2.42164 56.7699,0.53816 23.95957,5.25171 33.48367,9.98771 53.20226,26.45562 18.74478,15.65464 34.37696,39.56743 42.84895,65.54671 2.44651,7.50221 2.9276,8.2697 4.83288,7.71012 12.17244,-3.57502 23.29603,-2.56841 34.7082,3.14087 6.35502,3.17929 15.90771,11.91378 15.90771,14.54521 0,0.67513 20.87787,0.88856 62.78734,0.64184 l 62.78734,-0.36961 1.81217,-9.35681 c 3.70478,-19.12891 12.45339,-39.60761 23.7667,-55.63296 8.57373,-12.14472 28.30944,-31.99211 38.13789,-38.35371 20.3273,-13.15711 50.28084,-19.77417 78.28782,-17.29464 48.06829,4.25562 83.96013,28.36245 105.1707,70.63812 10.77622,21.47854 14.56101,36.95931 14.54674,59.5 -0.0249,39.3903 -13.37265,71.96513 -40.7967,99.5636 -15.79854,15.89902 -36.40847,28.02056 -58,34.11216 -9.48765,2.67675 -11.02469,2.81924 -30,2.78112 -18.91859,-0.038 -20.48029,-0.18846 -28.88262,-2.78258 -4.88543,-1.50832 -9.03792,-2.58709 -9.22775,-2.39726 -0.18983,0.18982 0.0914,4.14265 0.62503,8.78405 2.9534,25.68994 -0.0432,46.07892 -12.16219,82.75166 -2.78316,8.42202 -4.90104,15.42668 -4.70638,15.56592 0.19465,0.13924 3.72891,1.64003 7.85391,3.33509 7.49721,3.08078 7.51096,3.08235 36.99715,4.22315 29.43667,1.13888 43.72258,2.2377 79.38124,6.10574 22.95718,2.49026 30.41482,3.74968 56.12161,9.47766 26.00275,5.79392 34.18628,8.41088 44.43154,14.20846 11.90134,6.73472 18.0089,12.61482 21.923,21.10657 7.10501,15.41452 7.77531,27.72691 2.60617,47.87164 -1.9466,7.58616 -5.29638,22.34302 -7.44395,32.79302 -6.64174,32.3185 -10.56645,47.97511 -19.30194,77 -4.63486,15.4 -9.47169,32.35159 -10.74851,37.6702 l -2.32149,9.6702 9.82679,10.3298 c 5.40473,5.68139 11.62405,12.8048 13.82071,15.8298 9.13407,12.57843 15.90403,17.43176 30.67314,21.98934 16.04041,4.94989 20.6545,7.46904 24.62029,13.44196 3.83535,5.77646 5.33685,12.97629 3.44381,16.51346 -1.61311,3.01413 -9.68169,6.53595 -20.02956,8.74262 -12.84122,2.73838 -49.51561,2.48637 -68,-0.46727 -7.425,-1.18644 -19.59075,-2.625 -27.035,-3.19679 -7.44426,-0.57178 -15.07611,-1.48159 -16.95968,-2.02179 -11.76493,-3.37414 3.95168,6.63181 17.19059,10.94435 7.97816,2.59887 11.10974,4.88978 14.93988,10.9293 2.21565,3.49372 2.86421,5.70592 2.86421,9.76971 0,4.83251 -0.28145,5.468 -3.51357,7.93326 -5.09846,3.88878 -15.40377,7.31636 -26.92095,8.95399 -10.87843,1.54681 -38.35449,1.74443 -52.56548,0.37808 z m -108.19462,-67.06782 4.30538,-1.10772 -0.60593,-5.11734 c -0.33326,-2.81454 -3.23274,-34.01891 -6.44329,-69.34305 l -5.83737,-64.22571 -5.80259,-6.88931 -5.80259,-6.8893 -17.55949,-0.6663 C 631.40177,689.23721 613.825,688.50233 602,687.9706 546.12705,685.4582 343.48744,677.17849 244.86596,673.37836 c -23.99873,-0.92473 -44.31521,-1.41995 -45.14774,-1.10047 -0.9903,0.38001 -1.92051,3.1121 -2.69024,7.90148 -0.6471,4.02635 -1.38404,8.06274 -1.63764,8.96977 -0.57275,2.04852 -4.29114,1.82706 107.10966,6.37912 110.31894,4.50785 266.09503,11.06767 308,12.97007 18.15,0.82397 34.18641,1.49892 35.63646,1.4999 3.34984,0.002 2.70732,-4.88982 8.86561,67.50177 2.7605,32.45 5.29654,61.76438 5.63564,65.14306 l 0.61657,6.14306 6.62286,-1.918 c 3.64257,-1.05489 8.56028,-2.41647 10.92824,-3.02572 z M 804.44721,813 c 0.89799,-2.475 4.09309,-9.45 7.10022,-15.5 l 5.4675,-11 2.06653,-18.5 c 1.47355,-13.19153 1.99691,-23.52152 1.82391,-36 -0.68408,-49.34297 -0.58222,-51.24971 3.46822,-64.92317 2.02403,-6.83275 3.33049,-12.76341 2.90324,-13.17924 C 826.24789,652.89615 821,651.6194 821,652.37051 c 0,0.32303 -3.34449,13.30932 -7.4322,28.85841 -4.08771,15.54909 -9.50658,36.59608 -12.04193,46.77108 -2.53535,10.175 -7.28868,28.4 -10.56295,40.5 -3.27428,12.1 -6.83825,26.26186 -7.91994,31.4708 l -1.96671,9.4708 7.80125,8.0292 c 4.29069,4.41606 8.63972,9.32689 9.66452,10.91295 l 1.86326,2.88376 1.2046,-6.88376 c 0.66253,-3.78606 1.93932,-8.90875 2.83731,-11.38375 z m -56.16486,11.17586 c 11.07016,-5.72856 14.55656,-8.70573 15.25176,-13.02403 3.06966,-19.06777 11.16928,-51.28855 29.19809,-116.15183 13.80859,-49.67994 19.28045,-71.51832 19.94891,-79.61684 0.52094,-6.31137 0.28478,-7.77792 -2.08666,-12.95781 -1.47074,-3.21253 -3.84223,-7.37249 -5.26997,-9.24436 -5.023,-6.58549 -30.58129,-16.59305 -58.32448,-22.83744 -19.54802,-4.39984 -27.51844,-5.16105 -31.65294,-3.02302 -6.86516,3.55011 -12.55291,12.71509 -16.98698,27.372 -2.34573,7.75388 -2.67616,10.60184 -2.76227,23.80747 -0.0843,12.92932 0.21172,15.98421 2.1444,22.1296 3.55916,11.3171 3.16222,11.09584 21.32298,11.88622 l 15.5652,0.67743 2.47842,-4.81605 c 1.46097,-2.83895 3.8555,-5.6203 5.83287,-6.77515 l 3.35445,-1.9591 2.35193,2.73429 c 1.35144,1.57114 2.35194,4.0247 2.35194,5.76772 0,1.6684 -2.7495,8.9558 -6.11,16.19424 -14.3758,30.96513 -16.44524,37.98469 -16.26194,55.1608 0.0704,6.6 0.85739,18.075 1.74879,25.5 1.92163,16.00644 1.98787,34.04503 0.21297,58 -0.71315,9.625 -0.941,18.46709 -0.50634,19.64909 1.0674,2.90266 4.7667,5.35091 8.08521,5.35091 1.49803,0 6.04917,-1.72086 10.11366,-3.82414 z m -35.3579,-10.65703 c 0.53365,-2.76035 1.3925,-13.34383 1.90856,-23.51883 0.90956,-17.93375 0.48352,-30.05904 -1.75683,-50 -1.37173,-12.20953 -1.81225,-37.11781 -0.76491,-43.25 L 713.12255,692 H 702.08627 691.05 l 0.4731,2.75 c 0.2602,1.5125 3.42142,30.875 7.02493,65.25 3.60351,34.375 6.78235,63.58983 7.06408,64.92184 0.48472,2.29169 0.6689,2.18522 3.42716,-1.98116 1.6032,-2.42166 3.35154,-6.66149 3.88518,-9.42185 z m -528.93043,1.37557 c 7.2543,-1.67026 9.33552,-2.54897 10.06613,-4.25 1.24389,-2.89607 7.59629,-32.87179 14.44104,-68.1444 3.09515,-15.95 5.85577,-29.94642 6.13472,-31.10315 0.48527,-2.01224 0.0241,-2.13371 -10.67058,-2.81044 -6.14778,-0.38901 -11.3518,-0.53327 -11.56449,-0.32058 -0.58397,0.58396 -1.76592,7.15688 -10.47181,58.23417 -4.40601,25.85 -8.24783,47.7875 -8.53737,48.75 -0.66133,2.19841 -0.46109,2.19169 10.60236,-0.3556 z m 669.12341,-19.54121 c 3.08959,-1.37903 7.49532,-4.42076 9.79052,-6.7594 3.86494,-3.93809 4.36213,-5.0928 6.73318,-15.63781 1.40806,-6.26217 6.74124,-25.35156 11.85153,-42.42087 10.979,-36.67187 13.06812,-44.95161 19.54246,-77.45186 2.69346,-13.52079 6.08467,-29.75825 7.53601,-36.08325 2.40613,-10.48597 2.54339,-12.18439 1.55663,-19.26164 -0.59519,-4.26889 -2.04083,-9.99009 -3.21252,-12.71376 -2.35608,-5.47686 -10.09241,-13.36745 -15.1864,-15.48924 -4.83302,-2.01308 -42.87957,-12.31553 -53.51392,-14.49079 -8.48007,-1.7346 -9.66825,-1.76871 -13.70458,-0.39339 -5.96325,2.03188 -10.9073,7.6666 -12.48035,14.22381 l -1.23973,5.16778 4.74772,5.72862 c 2.61125,3.15073 6.59595,9.55361 8.85488,14.22861 l 4.10714,8.5 v 13 13 l 5.38116,0.30681 c 3.66031,0.20869 8.29729,-0.55051 14.5,-2.37406 12.55545,-3.69121 12.86792,-3.73503 15.06342,-2.1123 1.76926,1.3077 1.83158,1.81443 0.69123,5.62058 -1.34112,4.47627 -7.09086,11.59254 -10.15123,12.56386 -1.29336,0.4105 -3.69653,5.23395 -7.88997,15.83611 -9.71186,24.5542 -10.17638,27.93223 -8.68518,63.159 0.63313,14.95637 0.44872,22.8308 -0.86646,37 -3.039,32.74082 -3.05454,33.63821 -0.63509,36.68306 3.51414,4.42251 7.59218,4.46282 17.20955,0.17013 z M 448.02623,647.97094 C 452.68681,647.40496 469.1,644.41482 484.5,641.32619 l 28,-5.61569 31,1.55409 c 17.05,0.85475 31.096,1.46139 31.21333,1.34809 0.11733,-0.1133 -0.47336,-2.43501 -1.31264,-5.15934 -2.19198,-7.11522 -2.85167,-21.51517 -1.46281,-31.93057 1.2686,-9.51354 6.46223,-26.95391 11.06602,-37.15997 8.43353,-18.69622 27.115,-37.23983 42.41054,-42.0976 3.05692,-0.97086 5.56423,-2.01383 5.5718,-2.31772 0.008,-0.30389 -2.12374,-1.03142 -4.73624,-1.61675 -2.6125,-0.58532 -13.975,-3.1303 -25.25,-5.6555 -22.63828,-5.07018 -64.90562,-12.81878 -80.57012,-14.77042 -8.13543,-1.01358 -14.28336,-1.00373 -32,0.0513 l -21.92988,1.30592 -3.43781,11.11899 c -1.89079,6.11544 -3.3885,12.46898 -3.32824,14.11898 0.0603,1.65 0.4115,8.625 0.78053,15.5 0.47884,8.92058 0.26282,15.01641 -0.75438,21.28777 -1.02972,6.34857 -1.12485,9.16177 -0.34272,10.13518 1.08942,1.35587 11.6944,5.8326 16.859,7.11677 2.36053,0.58694 4.72362,3.01213 4.72362,4.84774 0,0.28543 -2.0822,1.44001 -4.62712,2.56575 -5.38217,2.38079 -9.86841,2.55681 -16.96973,0.66583 l -5.09685,-1.35722 -4.54156,6.11909 c -2.49786,3.3655 -8.23237,10.05659 -12.74335,14.86909 -6.12981,6.53954 -8.84184,8.75 -10.73541,8.75 -2.45779,0 -2.52007,-0.16363 -2.08035,-5.46612 0.3273,-3.9468 1.38161,-6.93479 3.79311,-10.75 8.32905,-13.1773 9.91828,-16.27257 12.3354,-24.02508 1.41623,-4.54234 3.04542,-10.92895 3.62041,-14.19246 1.2025,-6.82503 1.28929,-21.94697 0.18312,-31.90406 -0.66787,-6.01174 -0.42087,-7.88408 2.04478,-15.5 5.64099,-17.4239 7.56068,-32.66278 5.84835,-46.42535 -1.07473,-8.63793 -9.43207,-46.99658 -17.04577,-78.23693 -5.00971,-20.55574 -7.35643,-38.398 -6.44477,-49 0.37835,-4.4 1.15216,-8.9 1.71957,-10 0.56741,-1.1 5.64232,-6.78859 11.27757,-12.64132 15.49485,-16.09281 21.09795,-28.77264 16.60558,-37.57842 -2.80714,-5.50245 -9.61958,-11.17293 -14.32742,-11.92574 -6.47043,-1.03467 -6.60256,-0.0152 -1.07668,8.3074 2.5988,3.91408 3.61717,6.5624 3.67758,9.56368 0.0806,4.00579 -0.0467,4.17832 -3.64747,4.94296 -2.05206,0.43576 -7.68343,2.77732 -12.51416,5.20346 l -8.78315,4.41116 -1.21588,8.92767 C 417.95276,325.62106 411.73969,343.52822 402.11355,361 l -5.78501,10.5 -0.68142,13 c -0.37478,7.15 -1.64877,22.675 -2.8311,34.5 -2.46795,24.68322 -2.88469,53.43448 -0.9494,65.5 0.70576,4.4 2.3739,13.4 3.70699,20 3.2163,15.9236 3.48218,21.3711 1.1158,22.86045 -1.49811,0.94288 -2.20364,0.68782 -4.08797,-1.47784 l -2.27738,-2.6174 -5.26409,10.6174 c -2.89525,5.83956 -9.53957,18.19195 -14.76515,27.44974 -5.22558,9.25779 -11.13695,20.28279 -13.13639,24.5 -3.52257,7.42981 -3.63561,8.02437 -3.64408,19.16765 -0.007,9.19298 0.44799,12.95489 2.26795,18.75233 2.11735,6.74477 2.74417,7.63794 8.95639,12.76207 9.10309,7.50865 12.96461,9.13082 25.76131,10.82194 13.06238,1.72624 45.58303,2.08499 57.52623,0.6346 z M 334.75,610.36971 c 2.02886,-0.54371 2.25,-1.21693 2.25,-6.84985 0,-3.43579 0.44637,-8.6708 0.99193,-11.63337 0.94009,-5.105 10.28936,-25.30992 16.9291,-36.58587 l 3.0616,-5.19938 -2.18098,-1.52762 c -1.19954,-0.84019 -2.26055,-1.42547 -2.35779,-1.30062 -0.0972,0.12485 -3.8909,6.752 -8.43036,14.727 -12.6143,22.16105 -13.28552,22.61768 -31.56725,21.47539 C 305.46076,582.97644 302,583.08746 302,583.84259 c 0,3.28033 -4.28157,11.97014 -6.47666,13.14492 -1.35029,0.72265 -2.26838,1.616 -2.0402,1.98521 0.22819,0.36922 3.56955,1.90899 7.42524,3.42172 4.88763,1.91759 7.50897,2.47138 8.65703,1.82889 1.16836,-0.65385 4.44794,0.18138 11.29063,2.87546 10.49006,4.13011 10.59539,4.15491 13.89396,3.27092 z M 282.88323,586.75 c 3.90493,-2.03995 4.61394,-3.0248 7.59463,-10.54941 1.80819,-4.56467 3.45289,-8.45103 3.65488,-8.63636 0.20199,-0.18532 6.44226,-0.004 13.86726,0.40345 9.41405,0.5163 13.86603,0.40624 14.70938,-0.36364 1.60345,-1.46379 21.85995,-35.72512 24.89338,-42.10404 4.01,-8.43253 2.85987,-12.68721 -4.45014,-16.46234 -1.99017,-1.02778 -3.02702,-0.85658 -6.81354,1.12504 l -4.46616,2.3373 -2.43646,-2.80576 C 328.09641,508.15107 327,506.04623 327,505.01682 c 0,-1.02941 -1.17889,-2.79898 -2.61976,-3.93236 l -2.61976,-2.06071 -2.95696,2.48813 c -3.57447,3.00771 -4.23644,3.0552 -6.80352,0.48812 -2.39681,-2.39681 -2.51088,-5.61839 -0.47564,-13.43221 0.8384,-3.21882 1.31939,-6.05737 1.06888,-6.30788 -0.25051,-0.25051 -4.87397,0.57152 -10.27435,1.82672 -13.28471,3.08776 -24.27769,2.8343 -45.27073,-1.04378 -9.0485,-1.67155 -16.74999,-2.70251 -17.11442,-2.29101 -3.3268,3.75648 -17.2238,25.81882 -18.447,29.28575 -2.57895,7.30953 -2.90078,14.91586 -0.79931,18.89133 3.54427,6.70485 5.53346,7.39748 22.40133,7.80007 11.58936,0.2766 15.67809,0.72736 17.51497,1.93093 4.45457,2.91875 3.17182,6.40323 -6.26145,17.00862 -6.6877,7.51868 -9.35701,12.40155 -9.32032,17.04934 0.0291,3.6829 3.25721,10.6522 6.38091,13.7759 2.40402,2.40402 3.00915,2.50622 14.83979,2.50622 10.84754,0 12.85249,-0.27109 16.64057,-2.25 z m -24.6384,-9 c -1.60179,-2.00213 -2.34501,-5.32535 -1.61591,-7.22536 0.37085,-0.96642 2.87705,-2.77768 5.56935,-4.02504 3.85734,-1.78713 5.66055,-2.09528 8.50588,-1.45356 5.69006,1.28332 10.50254,7.46049 8.40879,10.7933 -0.69185,1.10129 -1.7326,1.02282 -5.85531,-0.44143 l -5.0139,-1.78078 -3.19859,2.69143 c -3.52047,2.96228 -5.28443,3.33618 -6.80031,1.44144 z m 5.9961,-61 c -6.1412,-6.55581 -5.63739,-17.39552 1.18453,-25.48586 2.61571,-3.10206 2.84439,-3.17596 5.53036,-1.78699 4.67758,2.41887 5.19657,6.29405 2.04418,15.26317 -1.1,3.1297 -2,7.07846 -2,8.77502 0,5.46144 -3.22663,7.0056 -6.75907,3.23466 z m 399.57302,-19.5 c 6.2125,-17.87872 8.82637,-27.69203 11.33721,-42.56361 l 2.2922,-13.57657 -1.79311,-19.30491 C 674.66405,411.18721 673.42924,398.225 672.90623,393 c -0.523,-5.225 -1.02323,-17.6 -1.11162,-27.5 -0.19246,-21.55796 0.79336,-26.20257 8.70272,-41.00195 l 5.34542,-10.00195 -3.27264,-3.57107 c -1.79995,-1.96408 -3.73657,-4.40006 -4.30359,-5.41327 -0.98657,-1.76289 -1.15196,-1.74703 -3.84132,0.36842 -2.31201,1.81862 -2.82556,3.01852 -2.896,6.76647 -0.0605,3.21736 -0.63206,4.9554 -1.94556,5.91585 -2.88029,2.10612 -5.36418,0.10275 -8.54047,-6.88826 -3.14864,-6.93016 -4.89886,-8.31935 -12.23402,-9.71043 C 642.494,300.76616 641,299.58288 641,295.77877 c 0,-3.6924 3.72818,-7.37283 10.8451,-10.70622 2.83519,-1.32793 5.1549,-2.70149 5.1549,-3.05236 0,-0.35086 -0.63294,-1.50352 -1.40652,-2.56147 -1.28201,-1.75325 -1.81444,-1.81443 -6.01435,-0.69113 C 647.04482,279.44542 642.95276,280 640.48565,280 636.86593,280 636,280.34069 636,281.76481 c 0,0.97064 -0.84,3.33314 -1.86667,5.25 -1.02668,1.91685 -2.18743,4.94769 -2.57946,6.73519 -0.87432,3.98654 -3.77294,4.37148 -6.10594,0.81087 -1.87749,-2.8654 -3.55096,-17.29422 -2.29262,-19.76712 0.8708,-1.71131 6.54727,-3.77773 10.40613,-3.78817 1.13379,-0.003 3.09687,-0.97023 4.3624,-2.14925 1.88612,-1.75719 2.20571,-2.85382 1.77264,-6.08259 -0.29058,-2.1664 -0.77061,-4.18121 -1.06675,-4.47734 -0.62954,-0.62955 -19.09925,6.35606 -22.33062,8.44588 -8.15837,5.27626 -9.63946,29.26731 -2.31926,37.5679 1.54718,1.7544 7.18014,5.88441 12.51769,9.17779 13.61682,8.40189 14.01394,9.2554 13.96386,30.01203 -0.0462,19.12489 -2.18784,32.45085 -8.98954,55.93424 -8.94161,30.87166 -12.41445,49.5815 -12.45234,67.08667 -0.0193,8.89813 -0.0825,9.1295 -4.64803,17 -2.54569,4.3885 -5.24569,8.68952 -6,9.55783 -2.42564,2.79219 -1.52565,3.47841 6.87851,5.24464 4.5375,0.9536 15,3.69637 23.25,6.09503 8.25,2.39866 16.40199,4.41079 18.11553,4.4714 3.09817,0.10958 3.13826,0.0447 7.19842,-11.63981 z m -68.02311,-15.58552 6.59375,-10.76982 0.77261,-13.08298 c 1.09255,-18.50066 3.47269,-30.03993 14.70905,-71.31168 1.04817,-3.85 2.65455,-11.39688 3.56973,-16.77085 l 1.66396,-9.77085 -4.51454,-5.74629 c -6.89502,-8.77626 -12.3756,-19.07875 -21.11285,-39.6883 L 589.5,295.71796 568,296.35653 c -11.825,0.35121 -37.71592,0.63967 -57.53537,0.64102 l -36.03537,0.002 -3.0905,6.25 c -3.7086,7.5 -10.61125,16.85417 -19.04844,25.81365 -3.41533,3.62674 -6.71092,7.90858 -7.32354,9.51521 -2.12819,5.58134 0.62512,24.30435 8.13448,55.3159 10.61481,43.83613 15.88773,70.99083 15.89472,81.85524 L 469,482 l 6.25,-0.01 c 3.4375,-0.005 12.66582,-0.46986 20.50739,-1.03204 16.9004,-1.21164 23.6968,-0.48047 64.74261,6.96522 14.85,2.69378 27.38185,4.81076 27.84855,4.70439 0.4667,-0.10636 3.81573,-5.0398 7.44229,-10.9632 z m -251.501,-89.78629 c 22.17454,-11.17541 42.97757,-37.84121 52.13407,-66.82666 16.48273,-52.17707 -5.88854,-114.41549 -50.84979,-141.46765 -3.25923,-1.961 -6.10767,-3.38366 -6.32988,-3.16146 -0.2222,0.2222 3.30553,3.93056 7.8394,8.24079 14.9745,14.23588 26.3632,32.50166 33.35506,53.49657 5.21283,15.6529 6.91508,26.80049 6.92351,45.34022 0.009,19.07763 -1.81109,30.84536 -7.36595,47.63288 -8.18818,24.74579 -18.11518,39.5344 -36.99626,55.11467 -5.12594,4.22982 -4.76727,4.68326 1.28984,1.63064 z M 792,374.46235 c 8.02919,-6.15184 21.82613,-20.87857 27.30245,-29.14238 6.76519,-10.20873 13.36651,-24.67144 16.45121,-36.04262 2.42802,-8.95047 2.6503,-11.34192 2.62834,-28.27735 -0.0216,-16.68522 -0.27585,-19.43191 -2.59152,-28 -5.66604,-20.96463 -16.27745,-39.78824 -30.17306,-53.52409 -7.36057,-7.27594 -20.35476,-17.0719 -21.33944,-16.08722 -0.21836,0.21836 1.78985,2.5839 4.46269,5.25675 9.33432,9.33432 20.25751,26.70032 26.31935,41.84325 14.1891,35.44547 12.92576,74.29194 -3.51437,108.06308 -5.60354,11.51073 -12.98805,22.23239 -24.04261,34.90773 -3.57667,4.10108 -6.50304,7.75215 -6.50304,8.11351 0,0.83757 4.00635,-1.75223 11,-7.11066 z M 286.58082,322.10268 c 13.73237,-6.23689 21.7747,-26.92803 16.96704,-43.65244 -4.19628,-14.59762 -14.34392,-23.47993 -26.76574,-23.42828 -8.59388,0.0357 -17.75508,5.2562 -21.3714,12.17838 -0.77589,1.48519 -1.41072,2.91099 -1.41072,3.16844 0,0.25746 5.59379,0.61731 12.43066,0.79966 14.30043,0.38143 16.47521,1.32886 20.31934,8.85199 5.25086,10.27617 0.72933,24.20196 -9.06271,27.91205 -1.54698,0.58613 -7.26183,1.35727 -12.69965,1.71363 l -9.88695,0.64793 1.36038,2.60298 c 1.91067,3.65592 6.42028,7.72469 10.53893,9.50868 4.89922,2.12209 14.57075,1.97242 19.58082,-0.30302 z m 444.88767,-10.53135 c 15.35502,-8.99863 18.09638,-35.45982 5.41982,-52.31515 -8.80893,-11.71276 -23.07553,-13.37569 -33.47655,-3.90206 l -4.55173,4.14588 2.31998,4.24175 2.31999,4.24175 6.5,0.01 c 4.16978,0.006 7.75474,0.63661 10,1.75824 7.82049,3.90678 10.58373,17.7691 4.57266,22.93961 -2.29159,1.97114 -3.80958,2.31346 -10.37842,2.34045 l -7.69424,0.0316 -2.75113,4.53201 c -2.14231,3.52907 -2.52661,4.95154 -1.73657,6.42774 1.2983,2.42591 6.62376,6.40238 10.4877,7.83107 4.83826,1.78894 13.8768,0.70123 18.96849,-2.28271 z M 223.16799,299.13802 C 225.61378,296.40071 226,295.14613 226,289.93877 226,282.05062 223.37301,279 216.58025,279 c -11.0706,0 -16.48674,13.81592 -8.76224,22.3514 1.35781,1.50035 2.71508,1.76912 7.09839,1.40563 4.52951,-0.37563 5.88468,-0.96998 8.25159,-3.61901 z m 447.27858,-7.45663 c 2.93127,-5.00184 4.04617,-9.58204 3.17618,-13.04834 C 672.08427,272.50324 658.75266,260 653.75523,260 c -3.1665,0 -1.58865,2.62039 3.7163,6.1718 5.64931,3.78195 13.44523,14.0857 13.48899,17.8282 0.0161,1.375 -1.07942,4.3 -2.43443,6.5 -2.69955,4.38296 -3.01805,5.5 -1.56824,5.5 0.52681,0 2.09674,-1.94338 3.48872,-4.31861 z m 20.28869,1.23964 c 0.67939,-1.33157 1.24189,-5.24636 1.25,-8.69955 0.0117,-4.9741 -0.58972,-7.4672 -2.89472,-12 -3.44488,-6.77437 -10.09656,-13.8133 -10.08077,-10.66765 0.005,1.07039 1.05718,4.19617 2.33735,6.94617 4.45749,9.57538 5.87875,15.22227 5.15527,20.4826 -0.99233,7.21514 1.41717,9.45704 4.23287,3.93843 z M 433.01557,279.48124 c 1.02834,-1.23908 0.95362,-1.85781 -0.40579,-3.35994 -0.91644,-1.01265 -1.99105,-3.70404 -2.38802,-5.98086 L 429.5,266.00076 426,267.75038 c -2.9909,1.49513 -3.5,2.25409 -3.5,5.2178 0,3.00199 0.53768,3.7727 4,5.73355 4.77217,2.70268 4.90617,2.71871 6.51557,0.77951 z"
       id="path1" />
  </g>
</svg>
