<?xml version="1.0" encoding="UTF-8" standalone="no"?>
<!-- Created with Inkscape (http://www.inkscape.org/) -->

<svg
   version="1.1"
   id="svg1"
   width="1024"
   height="1024"
   viewBox="0 0 1024 1024"
   xmlns="http://www.w3.org/2000/svg"
   xmlns:svg="http://www.w3.org/2000/svg">
  <defs
     id="defs1" />
  <g
     id="g1">
    <path
       style="fill:#000000"
       d="m 479.55015,872.86987 c -4.92242,-0.47291 -18.87242,-2.86783 -31,-5.32204 -12.12758,-2.45421 -27.4402,-5.18623 -34.02804,-6.07116 -6.58784,-0.88493 -14.62295,-2.50001 -17.8558,-3.58908 -13.23996,-4.46022 -13.84365,-6.15981 -9.59033,-27.00022 5.20243,-25.49092 10.15857,-38.71371 17.59641,-46.9465 3.55501,-3.93498 3.66678,-4.32181 6.87814,-23.80574 1.79542,-10.89317 3.57521,-22.29335 3.95508,-25.33373 l 0.69067,-5.52797 -4.58687,-2.22047 c -5.91671,-2.86422 -12.0035,-9.81721 -13.6066,-15.54291 L 396.74008,707 l -13.12004,0.12254 c -7.21602,0.0674 -17.84504,0.40489 -23.62004,0.75 L 349.5,708.5 349.24193,713 c -2.36987,41.32431 -27.38095,85.40511 -61.1021,107.68945 -21.82905,14.42554 -41.37637,19.1161 -75.13983,18.0305 -17.90427,-0.57567 -29.57127,-2.86545 -41.41663,-8.12846 -16.46272,-7.31455 -36.9413,-25.29446 -48.45666,-42.54429 -38.310782,-57.38896 -37.323259,-133.31601 2.42273,-186.27449 15.69841,-20.91694 36.29974,-35.21749 59.07357,-41.00632 8.20378,-2.0853 11.03837,-2.25449 37.37699,-2.231 27.9754,0.025 28.65646,0.0741 37,2.67127 32.59024,10.14454 57.72665,32.31496 74.44019,65.65656 7.55229,15.06596 10.67278,24.7289 15.16701,46.96623 l 0.47079,2.32945 21.711,-0.68412 c 34.54515,-1.08854 30.50282,-0.38914 32.00822,-5.538 0.71346,-2.44023 2.85096,-7.70672 4.75,-11.70332 L 411,650.96691 v -23.85845 c 0,-13.12215 -0.28069,-25.2619 -0.62375,-26.97722 -0.52851,-2.64254 -2.24632,-4.14658 -11.25,-9.84998 -13.48783,-8.5439 -45.02692,-30.5506 -56.12625,-39.16262 -27.18247,-21.091 -38.6421,-35.99316 -45.22936,-58.81649 -1.93548,-6.70597 -2.24228,-10.0501 -2.1837,-23.80215 0.0613,-14.38172 0.33894,-16.88821 2.74545,-24.78184 9.74262,-31.95682 30.02907,-51.77733 80.06975,-78.23072 l 12.90214,-6.82055 27.09786,-27.14224 c 34.46957,-34.52602 47.74457,-45.65973 64.29338,-53.92272 12.73632,-6.35939 27.92115,-9.8512 69.68501,-16.02434 25.59717,-3.78354 26.14219,-4.00092 30.82828,-12.29541 l 2.91138,-5.15323 -1.98544,-6.42811 c -3.41002,-11.04034 -4.38851,-21.36409 -3.87827,-40.91833 0.53321,-20.43458 1.57896,-25.76285 7.41538,-37.78251 2.57327,-5.29945 5.57635,-9.40714 10.23524,-14 19.02999,-18.7603 49.76211,-23.35627 96.18853,-14.38495 14.09552,2.72379 28.89146,3.52153 37.24354,2.00803 l 4.83918,-0.87691 -0.33918,11.37691 c -0.30008,10.06564 -0.66423,12.03889 -3.15949,17.12031 -1.55117,3.15887 -4.12104,7.04412 -5.71081,8.6339 l -2.8905,2.8905 3.95749,16.3661 c 2.17663,9.00136 3.95899,17.40096 3.96082,18.66577 0.004,2.8282 -1.86583,6.5256 -5.79233,11.45326 -2.68245,3.36639 -2.90044,4.15351 -2.11656,7.64231 0.48064,2.13916 2.90751,8.06769 5.39305,13.1745 2.48554,5.10681 4.51679,10.66777 4.5139,12.35769 -0.007,4.29356 -2.79599,8.39467 -7.49055,11.01603 -3.41336,1.90597 -4.37152,3.23881 -6.57338,9.14387 -1.41766,3.80197 -3.49286,8.71268 -4.61155,10.91268 -1.11869,2.2 -3.03128,7.375 -4.25019,11.5 -3.69468,12.50339 -9.43587,18.98777 -16.81907,18.99626 -1.7875,0.002 -3.25,0.20491 -3.25,0.45078 0,0.24588 2.14646,3.28338 4.7699,6.75 14.68983,19.41117 17.14715,45.6634 7.65985,81.83231 l -2.4996,9.52934 2.21497,12.47066 c 1.90692,10.73628 2.23281,16.36478 2.34327,40.47065 0.12709,27.73676 0.15552,28.09402 3.02402,38 2.72168,9.39897 2.89455,11.08186 2.87616,28 -0.0171,15.75887 -0.47247,20.86367 -3.6571,41 -6.20807,39.25335 -8.49725,59.90401 -6.90699,62.308 0.5973,0.90294 1.57665,-0.64545 3.1625,-5 11.11547,-30.52182 29.05311,-52.40054 52.51302,-64.05066 16.82654,-8.35601 26.66012,-10.18408 55,-10.22452 21.93503,-0.0313 23.43988,0.0908 32.5,2.63631 35.96819,10.10564 61.92499,35.54471 74.44496,72.96009 19.68118,58.81634 -3.26182,124.9683 -53.24441,153.52058 -16.56403,9.46211 -33.87251,12.93136 -60.20055,12.06637 -19.01585,-0.62476 -28.5397,-2.62064 -41.72746,-8.74469 C 736.31731,774.45417 713.33648,747.54242 703.5216,717 c -2.24305,-6.98001 -2.5847,-7.31225 -6.10876,-5.94047 -1.60206,0.62362 -5.16284,1.49954 -7.91284,1.94648 -2.75,0.44695 -7.025,1.56711 -9.5,2.48925 -2.96045,1.10301 -5.69742,1.447 -8,1.00547 -1.925,-0.36913 -7.17758,-0.60319 -11.6724,-0.52013 -5.82574,0.10765 -9.07328,-0.31484 -11.30974,-1.47136 -5.14334,-2.65973 -11.01218,-8.56452 -13.61239,-13.69578 C 633.48702,697.02758 632.44112,696 630.50621,696 c -1.4518,0 -3.05873,0.92219 -3.92065,2.25 C 623.47134,703.04751 606,757.94386 606,762.93148 c 0,2.12333 15.08637,19.31463 27.41485,31.23992 5.68014,5.49437 14.69727,10.44649 26.08515,14.3257 4.4,1.49884 9.575,3.53394 11.5,4.52244 10.45405,5.36828 16.0636,19.44369 11.03549,27.69012 -4.22024,6.92147 -13.83254,9.29971 -37.46915,9.27046 -16.07229,-0.0199 -32.85367,-1.44111 -52.54971,-4.45045 -5.76585,-0.88096 -17.91585,-2.04068 -27,-2.57714 -9.08415,-0.53647 -17.79392,-1.25532 -19.35505,-1.59744 l -2.83842,-0.62205 2.08842,4.09364 c 2.46865,4.83897 2.7308,12.03042 0.58947,16.17129 -3.75714,7.2655 -12.60893,10.57454 -32.10093,12.00018 -14.90378,1.09006 -21.42577,1.06534 -33.84997,-0.12828 z M 521,821.8405 c 0,-4.16596 4.57955,-29.08562 6.58651,-35.8405 2.17903,-7.33405 5.0152,-12.85295 8.48415,-16.50928 2.43368,-2.56515 3.07483,-4.48381 4.34416,-13 C 542.17292,744.69526 545,713.2251 545,705.44997 c 0,-6.46598 2.50248,-6.01384 -23.71283,-4.28431 l -18.21284,1.20158 -4.93743,11.56638 C 488.61806,736.23236 475,775.46715 475,780.59301 c 0,1.44291 4.08271,7.61629 10.66255,16.12261 11.89068,15.37209 15.49937,19.49492 19.72991,22.54089 3.59439,2.58795 13.74339,6.77757 14.81449,6.11559 C 520.64313,825.10252 521,823.51331 521,821.8405 Z m -258.4901,-8.77232 c 30.02646,-13.61464 54.05254,-47.90861 62.13845,-88.69418 2.65152,-13.37432 2.42437,-39.36524 -0.47227,-54.03913 -4.09739,-20.75669 -9.96453,-35.34869 -20.61531,-51.27173 C 296.14535,607.977 286.24788,597.34295 277,590.5257 c -6.15384,-4.53642 -21.91576,-12.94327 -22.73369,-12.12535 -0.20928,0.20928 4.74024,5.49232 10.99894,11.74008 21.08236,21.04554 34.22711,44.79711 41.42926,74.85957 3.69486,15.42268 4.37735,43.48533 1.47139,60.5 -3.65876,21.42232 -11.28709,40.58001 -23.32377,58.57505 -7.22791,10.80584 -17.71907,22.23712 -24.84287,27.06904 -4.35014,2.95061 -6.10689,4.85591 -4.4773,4.85591 0.28707,0 3.43165,-1.31932 6.98794,-2.93182 z m 170.22582,-20.04854 c 1.77965,-1.08508 6.58374,-4.63342 10.67575,-7.88519 4.09202,-3.25178 9.38594,-6.65672 11.76428,-7.56654 l 4.32425,-1.65421 4.33786,-12.70685 c 9.40613,-27.55332 12.53876,-36.16413 17.30666,-47.57174 2.72747,-6.52569 4.71073,-12.11319 4.40725,-12.41667 -0.67567,-0.67567 -0.56486,-0.81932 -4.02549,5.21846 -6.63949,11.58394 -14.75108,17.30547 -26.42376,18.63806 -3.63138,0.41458 -8.51502,1.33527 -10.85252,2.046 -3.1842,0.96816 -5.24773,1.02592 -8.22853,0.23029 -4.5908,-1.22535 -4.29669,-1.67936 -5.92654,9.14875 -0.5795,3.85 -2.67667,17.05476 -4.66038,29.3439 l -3.60675,22.3439 2.26041,2.4061 c 2.74169,2.91839 4.42352,3.00119 8.64751,0.42574 z m 143.41643,-18.99435 c 5.69132,-3.4052 10.99432,-6.52247 11.78444,-6.92727 0.79013,-0.4048 2.04202,-3.40495 2.78198,-6.66701 1.90027,-8.37721 9.40684,-33.51234 14.74074,-49.35815 2.48586,-7.38492 4.30381,-13.64307 4.03989,-13.90699 -0.58423,-0.58423 -47.64893,1.80863 -48.73133,2.47759 -0.42233,0.26102 -0.77013,3.03552 -0.77289,6.16556 -0.009,10.59485 -4.3274,54.23372 -6.61831,66.88554 -0.46696,2.57887 -0.0625,3.7105 2.09846,5.87148 3.89044,3.89044 8.1482,2.95543 20.67702,-4.54075 z m 274.12637,-2.1432 c 12.6744,-6.35179 25.77515,-17.6951 33.47554,-28.98484 7.8257,-11.47346 15.56444,-29.99706 18.82488,-45.05962 2.4461,-11.30046 2.9201,-30.528 1.03524,-41.99359 -5.12289,-31.16239 -21.47397,-58.12982 -44.88521,-74.0281 -6.57324,-4.46379 -19.93507,-10.97394 -20.72638,-10.09829 -0.27642,0.30589 0.0961,0.76912 0.82785,1.0294 5.30856,1.88827 23.48572,20.44758 30.58684,31.22988 C 883.62969,625.55698 890,646.8248 890,672.69402 c 0,35.94979 -14.32279,70.9796 -38.52003,94.20991 -4.63818,4.45284 -8.20578,8.09607 -7.92799,8.09607 0.27778,0 3.30472,-1.40306 6.72654,-3.11791 z M 210.41001,731.60561 c 13.3805,-7.8415 20.23004,-26.06454 16.46561,-43.80639 -2.25478,-10.62683 -9.39193,-20.95552 -17.30741,-25.04679 -5.37978,-2.78065 -15.60563,-2.96035 -20.56821,-0.36146 -6.76644,3.54356 -14.41665,12.62907 -12.3351,14.64935 0.45931,0.44579 6.54439,0.95658 13.52241,1.1351 12.53033,0.32056 12.72677,0.3617 15.8761,3.32458 9.70699,9.1323 9.02382,25.43564 -1.35415,32.31598 -3.67823,2.43858 -5.1458,2.72974 -16.04877,3.18402 -7.44366,0.31014 -12.13876,0.919 -12.3649,1.60348 -0.6616,2.0025 9.02965,11.63724 14.18413,14.10141 6.33222,3.02721 13.57017,2.62799 19.93029,-1.09928 z M 142.56435,713.96023 C 155.36179,706.05098 150.373,681.00748 136,681.00748 c -8.6672,0 -14.48902,8.33221 -13.84055,19.80863 0.76764,13.58529 10.03347,19.55402 20.4049,13.14412 z m 285.39008,-2.57534 c 1.70934,-1.43831 4.46548,-4.58831 6.12477,-7 3.16116,-4.59459 5.24974,-5.32728 8.47113,-2.97174 1.90127,1.39024 1.89627,1.48791 -0.30887,6.02675 -2.7939,5.7507 -2.80501,6.78208 -0.0687,6.37965 1.24701,-0.1834 4.15864,-2.87596 6.83373,-6.31955 4.81669,-6.20044 7.07511,-7.5071 9.4987,-5.4957 1.20841,1.00289 1.18374,1.73269 -0.17322,5.12406 -0.87027,2.17504 -1.34281,4.19413 -1.05007,4.48686 0.96034,0.96035 6.42372,-2.47665 9.22078,-5.80076 6.37858,-7.58051 6.37616,-6.93195 0.12382,-33.26756 C 463.53192,659.51222 461,648.00769 461,646.98127 461,644.94824 469.32298,614.24355 474.00606,599 484.1295,566.04797 484.1969,565.67921 484.88212,539.5 l 0.62817,-24 5.40949,-8.5 c 6.67483,-10.48822 9.22138,-16.17273 13.11337,-29.27207 4.15355,-13.97966 7.03148,-30.76923 7.8603,-45.85613 l 0.69374,-12.6282 6.72107,-7.25937 c 8.6535,-9.34658 14.67772,-18.46984 20.2657,-30.69101 5.72853,-12.52855 5.88381,-12.79322 7.50549,-12.79322 2.06634,0 3.89221,4.46901 3.88136,9.5 -0.0271,12.56273 -7.26976,29.23296 -18.46486,42.5 l -4.21914,5 -0.60996,12 c -0.33547,6.6 -1.12487,14.83539 -1.75421,18.30086 -0.62934,3.46547 -0.91175,6.53337 -0.62757,6.81755 0.84426,0.84426 18.06608,-5.2683 25.92643,-9.2021 21.87176,-10.94597 37.89232,-26.2532 48.57936,-46.41631 2.18637,-4.125 4.73231,-9.55456 5.65765,-12.06568 0.92533,-2.51113 2.77603,-5.88613 4.11266,-7.5 2.36602,-2.85677 2.47,-2.88302 3.93454,-0.99319 5.11498,6.60034 -2.126,32.04092 -12.4616,43.78278 -6.36119,7.22669 -5.77838,8.15751 4.71589,7.53176 9.83177,-0.58624 16.85971,-2.8849 24.66024,-8.06573 11.67012,-7.75089 21.17799,-20.30178 28.12233,-37.12298 4.35046,-10.53807 6.24433,-12.82693 8.8346,-10.6772 4.49282,3.72871 2.20968,19.48374 -4.91472,33.91464 -3.60854,7.30931 -6.18656,10.89745 -12.02297,16.73387 L 643,439.96774 v 10.46491 c 0,16.95904 2.44477,32.2666 7.49794,46.94729 4.88627,14.19578 4.82411,16.62006 -0.42613,16.62006 -1.72701,0 -3.10702,0.64937 -3.48758,1.6411 -1.09324,2.84895 -2.43139,18.72842 -1.84203,21.8589 0.31064,1.65 2.96286,5.74095 5.89383,9.09101 10.72958,12.26374 13.49739,24.24156 9.80484,42.43089 -1.64623,8.1093 -1.67953,10.35917 -0.43712,29.53602 l 1.34486,20.75807 -2.92431,5.58985 c -1.60836,3.07442 -5.50993,9.07832 -8.67014,13.34201 L 644.00831,666 h 5.27334 c 8.10772,0 11.43001,3.28896 13.7416,13.60373 0.78768,3.5148 0.76713,6.10161 -0.0764,9.61791 C 661.67044,694.54223 659.08913,697 654.77749,697 653.24987,697 652,697.37396 652,697.83102 c 0,1.58689 4.67261,3.31972 8.07678,2.99526 2.96957,-0.28304 3.95331,-1.15082 7.42322,-6.54824 4.212,-6.55173 6.33684,-7.58027 10.05033,-4.86489 1.90127,1.39024 1.89627,1.48791 -0.30887,6.02675 -4.22691,8.70025 -1.96497,8.16138 4.93225,-1.17504 4.03991,-5.46862 7.77648,-7.38101 10.31125,-5.27734 1.27804,1.06068 1.2748,1.65169 -0.0261,4.76521 -0.81681,1.95489 -1.26507,3.77438 -0.99614,4.04331 0.8523,0.8523 3.6186,-2.03421 5.49054,-5.72914 3.92909,-7.75544 3.67123,-9.77558 -4.39703,-34.44784 l -7.48247,-22.88094 0.99573,-13.61906 c 0.54766,-7.49048 2.60498,-24.64406 4.57184,-38.11906 5.71536,-39.15617 6.31443,-44.07651 6.33121,-52 0.0203,-9.58136 -1.18086,-16.82014 -5.0433,-30.39363 l -3.09987,-10.89363 1.1636,-15.61819 c 1.29002,-17.31518 0.51962,-30.3781 -3.05597,-51.81645 l -2.03842,-12.22189 2.09763,-7.04345 c 12.61417,-42.35602 7.58021,-69.07788 -16.32886,-86.67873 l -5.9034,-4.34584 -12.56054,12.14117 C 638.1745,337.68988 632.18343,342 627.36324,342 c -7.02663,0 -5.84523,-3.61347 6.00226,-18.3587 5.18027,-6.4473 10.68274,-13.54641 12.22772,-15.77581 l 2.80904,-4.05346 -2.45113,-1.89812 c -1.34812,-1.04397 -5.60113,-3.7624 -9.45113,-6.04097 -12.31857,-7.29058 -15.79536,-11.74017 -18.9965,-24.3117 -1.95547,-7.67949 -2.1355,-7.96606 -5.51249,-8.77467 -1.92006,-0.45974 -5.6816,-1.82659 -8.359,-3.03744 l -4.86799,-2.20153 -2.13201,2.76607 c -5.94293,7.71035 -9.49955,11.16994 -13.14898,12.79026 -2.36649,1.0507 -14.69275,3.27795 -30,5.42073 -37.97554,5.316 -53.0293,8.70171 -64.57137,14.52261 -14.30403,7.21381 -39.10621,28.79233 -69.02259,60.0514 L 402.27814,371.5 l -13.75882,7.45429 -13.75882,7.45429 0.47212,6.54571 c 0.95725,13.27187 9.28423,27.83901 24.51152,42.88026 9.33948,9.22537 20.68685,17.63515 22.38179,16.58762 0.48074,-0.29711 0.87407,-2.49393 0.87407,-4.88181 0,-6.83635 3.74666,-27.2531 6.61373,-36.04036 1.43561,-4.4 4.6542,-12.05 7.15242,-17 4.09492,-8.11373 4.61297,-9.93551 5.26075,-18.5 0.3952,-5.225 1.23765,-11.39204 1.87212,-13.70453 C 445.26087,357.33186 449.43886,352 451.96645,352 c 3.77797,0 4.35694,2.40099 3.6838,15.27674 -0.55303,10.57824 -0.31776,13.81158 1.74816,24.02521 2.57362,12.7237 2.47802,15.28511 -0.60704,16.26427 -2.40347,0.76283 -3.91089,-0.58573 -5.43283,-4.8603 l -1.14146,-3.20592 -1.63431,3.77957 c -0.89888,2.07876 -2.55559,7.65862 -3.68159,12.39969 -4.99605,21.03603 -5.27803,23.79385 -5.50301,53.82074 l -0.21729,29 -4.01888,9.5 c -8.23423,19.46442 -11.31048,47.13161 -9.3183,83.80702 0.64809,11.93114 1.17339,30.73039 1.16732,41.77611 l -0.011,20.08312 -3.88455,7.41688 c -5.3628,10.23932 -5.80359,12.92917 -3.06626,18.71134 1.30154,2.74929 2.43118,7.4747 2.71722,11.36648 0.8455,11.50334 -1.16275,16.83905 -6.33784,16.83905 -3.14977,0 -3.07922,1.34304 0.20629,3.92742 3.56404,2.80348 7.57132,2.61141 11.31957,-0.54253 z m 151.0574,-379.43476 c -21.62531,-12.42627 -25.84019,-16.04216 -22.87055,-19.62036 2.29786,-2.76875 9.17347,-0.98833 23.20083,6.0078 15.52862,7.74488 24.99646,14.83576 25.48797,19.08908 0.18647,1.61371 -0.24857,3.22316 -1,3.69953 -3.48885,2.21173 -7.72751,0.64457 -24.81825,-9.17605 z m 221.21522,373.81498 c 8.79264,-3.70461 15.90022,-13.61715 17.67766,-24.65404 3.27801,-20.3546 -10.4277,-39.20458 -28.62847,-39.3738 -5.96477,-0.0555 -13.75205,2.6156 -17.64102,6.05092 C 769.51904,649.65752 764,657.90338 764,659.19578 764,659.6381 770.00845,660 777.35212,660 c 12.19093,0 13.64761,0.19638 16.75,2.25807 3.91199,2.59973 7.89859,9.77077 7.89633,14.20382 -0.002,4.36902 -2.96704,9.64324 -6.89633,12.26818 -3.10708,2.07566 -4.53557,2.26993 -16.69099,2.26993 -7.3112,0 -13.5297,0.38284 -13.81889,0.85075 -1.24459,2.0138 6.85223,10.27946 13.40776,13.68733 7.22891,3.75793 13.69008,3.82392 22.22705,0.22703 z M 496.97271,670.0299 c 2.9152,-0.77716 6.64244,-8.78873 16.52965,-35.5299 3.45705,-9.35 7.93931,-21.275 9.96059,-26.5 4.40922,-11.39784 7.52621,-23.84186 7.51442,-30 -0.0126,-6.58032 -2.27168,-15.10991 -5.46854,-20.64745 C 522.34929,551.87965 504.88562,534 502.69959,534 c -1.13818,0 -1.5395,2.85881 -2.00042,14.25 -0.67938,16.79018 -1.67103,21.6422 -9.61991,47.06904 -6.09423,19.49417 -10.8506,36.48974 -13.15371,47.00117 -1.18509,5.40877 -1.07213,6.66548 1.59786,17.77723 l 2.8731,11.95701 6.05175,-0.68268 c 3.32846,-0.37547 7.16446,-0.97932 8.52445,-1.34187 z m 47.4203,-1.61169 C 544.72686,667.54823 545,665.72926 545,664.37605 c 0,-9.11431 7.53987,-31.75139 16.13014,-48.42779 2.39351,-4.64654 4.48132,-8.71207 4.63959,-9.03451 0.15828,-0.32244 -4.75144,-2.51774 -10.91047,-4.87845 -13.11814,-5.02808 -12.42525,-5.32368 -16.30263,6.95504 -2.95577,9.36021 -14.20031,38.78247 -19.4298,50.83968 -2.15691,4.973 -3.66782,9.29566 -3.35758,9.6059 0.31025,0.31024 6.74094,0.56408 14.29043,0.56408 11.59414,0 13.82063,-0.24571 14.33333,-1.58179 z M 597,667.89615 c 12.925,-0.61077 23.87447,-1.45924 24.33216,-1.88548 0.45769,-0.42624 3.2375,-9.71552 6.17737,-20.64283 2.93987,-10.92731 7.86201,-27.74284 10.93809,-37.36784 9.7626,-30.54696 10.18791,-36.16846 3.50033,-46.26486 -4.4064,-6.65245 -23.24026,-25.24727 -35.60524,-35.15333 l -10.57057,-8.46849 -5.63607,2.06845 c -11.94198,4.38273 -32.85566,20.99291 -43.01963,34.16731 -3.57019,4.62762 -4.08475,5.84161 -3.18702,7.51904 0.58882,1.10022 1.07058,5.84461 1.07058,10.54309 0,10.25754 -0.80589,9.49148 17,16.1599 16.11397,6.03479 21.69251,8.8847 22.52489,11.50731 0.47075,1.48319 -0.57209,4.41698 -3.47303,9.77061 -12.58539,23.22611 -19.6656,41.20874 -20.73536,52.66457 l -0.60571,6.4864 6.89461,0.003 c 3.79203,0.002 17.4696,-0.4964 30.3946,-1.10717 z m 49.31649,-30.33328 c -0.70894,-4.3687 -1.45596,-3.29706 -2.74449,3.93713 l -0.71247,4 2.04717,-2.00471 c 1.65422,-1.61991 1.92482,-2.75863 1.40979,-5.93242 z M 408.79381,553.80532 408.5,546.61063 l -2.76458,5.66152 c -1.52053,3.11384 -3.03917,7.66483 -3.37478,10.11332 -0.55194,4.02685 -0.28804,4.83623 2.76459,8.47904 l 3.37477,4.02723 0.29381,-6.94587 c 0.16159,-3.82023 0.16159,-10.18348 0,-14.14055 z M 631.40693,522.25 c 0.34871,-2.6125 1.37719,-8.88518 2.28551,-13.93929 1.61048,-8.96119 1.59697,-9.43284 -0.54423,-19 -2.67522,-11.95323 -4.07626,-22.63593 -4.11733,-31.39404 -0.017,-3.62084 -0.25041,-6.80287 -0.51873,-7.07118 -0.26831,-0.26832 -3.53081,0.30574 -7.25,1.27568 -7.91609,2.06448 -26.50659,2.48509 -32.35757,0.73209 -3.73157,-1.118 -4.03723,-1.00715 -12.19988,4.42439 -4.60483,3.06411 -12.72218,7.89525 -18.03856,10.73586 -5.31637,2.84062 -9.66614,5.31054 -9.66614,5.48872 0,0.17818 7.0875,4.01333 15.75,8.52254 20.19436,10.51205 28.04225,15.69559 48.17578,31.82014 9.03418,7.2353 16.74559,13.15509 17.13646,13.15509 0.39087,0 0.99598,-2.1375 1.34469,-4.75 z m 62.00821,-225.76083 c 0.90483,-1.38095 2.35777,-5.76845 3.22875,-9.75 1.04873,-4.79409 2.58628,-8.52058 4.55225,-11.03306 C 703.71636,272.4853 706,267.31704 706,264.83415 c 0,-0.37347 -1.6875,-1.22084 -3.75,-1.88303 -4.87757,-1.56599 -7.25,-3.70917 -7.25,-6.5494 0,-3.97003 3.50453,-5.40172 13.22251,-5.40172 6.36053,0 8.7748,-0.3442 8.76772,-1.25 -0.005,-0.6875 -1.18836,-3.725 -2.62886,-6.75 -1.4405,-3.025 -4.11598,-9.1 -5.94551,-13.5 -3.90661,-9.39533 -3.50264,-9.20529 -19.94335,-9.38169 C 674.91441,219.97285 673,219.02758 673,212.47848 c 0,-6.36509 1.60489,-6.96171 15.94791,-5.92861 6.35365,0.45764 14.92709,0.85863 19.05209,0.8911 7.41602,0.0584 7.50348,0.0289 7.81083,-2.63304 0.34681,-3.00364 -5.24568,-25.42204 -6.81284,-27.31035 -0.62858,-0.7574 -5.56237,-1.42178 -13.24975,-1.78421 -6.73653,-0.31759 -18.43468,-1.76025 -25.99589,-3.20591 -7.56121,-1.44566 -15.43621,-2.48874 -17.5,-2.31797 L 648.5,170.5 l -0.1344,17.10526 c -0.15274,19.43883 -0.75218,21.6321 -7.9715,29.16661 -3.53271,3.68693 -4.7003,4.32006 -7.4674,4.04919 -2.72976,-0.2672 -3.67267,-1.066 -5.62111,-4.76197 -3.04494,-5.77592 -4.99334,-7.85735 -9.51575,-10.1655 -4.41454,-2.25309 -7.91461,-2.40065 -11.5895,-0.4886 -8.79349,4.57524 -12.56976,17.28486 -8.59856,28.93971 2.18288,6.40639 8.91623,12.95712 16.06925,15.63341 3.10659,1.16232 6.26169,1.87795 7.01134,1.59028 2.08371,-0.79959 4.9601,2.71138 5.77137,7.04462 1.15315,6.15934 5.51471,14.40942 9.95771,18.83543 6.17957,6.15595 24.07305,14.39476 41.58855,19.1489 11.16031,3.02918 13.36962,3.01368 15.41514,-0.10817 z m -81.44831,-61.31495 c -2.79854,-2.26612 -5.37458,-12.97157 -3.99467,-16.60099 1.06816,-2.80949 4.9803,-3.57218 6.78732,-1.32323 1.76712,2.19929 4.20234,14.95282 3.20942,16.80811 -1.39485,2.6063 -3.64503,3.02473 -6.00207,1.11611 z"
       id="path1" />
  </g>
</svg>
