<?xml version="1.0" encoding="UTF-8" standalone="no"?>
<!-- Created with Inkscape (http://www.inkscape.org/) -->

<svg
   version="1.1"
   id="svg1"
   width="1024"
   height="1024"
   viewBox="0 0 1024 1024"
   xmlns="http://www.w3.org/2000/svg"
   xmlns:svg="http://www.w3.org/2000/svg">
  <defs
     id="defs1" />
  <g
     id="g1">
    <path
       style="fill:#000000"
       d="m 468.5,961.33368 c -8.47494,-1.03578 -16.85393,-2.70383 -24.5,-4.87733 -4.675,-1.32893 -13.225,-3.10957 -19,-3.95697 -14.63368,-2.14728 -20.43603,-3.97412 -23.05342,-7.25824 -2.02516,-2.54104 -2.14104,-3.47459 -1.58751,-12.78868 1.06997,-18.00398 4.81404,-32.04065 11.85705,-44.45246 l 3.12095,-5.5 0.69989,-48 c 0.64496,-44.23292 0.86363,-48.60692 2.78629,-55.73333 3.02968,-11.22965 7.01192,-20.11141 15.02853,-33.51878 l 7.09099,-11.85932 1.21268,-14.15904 1.21267,-14.15903 -2.67289,-2.47715 c -2.31205,-2.14273 -2.60546,-3.05876 -2.17339,-6.78525 3.15679,-27.2263 7.78129,-70.86981 8.98634,-84.8081 2.27854,-26.35509 3.12501,-30.27038 13.56854,-62.7602 8.42283,-26.20339 9.35948,-36.67459 5.29802,-59.22829 -1.22349,-6.79418 -2.48831,-10.08758 -6.33673,-16.5 -8.50955,-14.17897 -14.28413,-27.36201 -21.03053,-48.01151 -3.11626,-9.53832 -3.62272,-10.36934 -10.9699,-18 -12.62529,-13.11243 -21.53738,-27.89723 -29.53658,-49 -2.08482,-5.5 -4.80092,-11.125 -6.03578,-12.5 -3.13342,-3.48904 -5.99733,-9.50232 -8.12507,-17.05998 -2.60033,-9.2363 -2.35932,-39.77468 0.5204,-65.94002 1.18038,-10.725 2.54796,-26.37143 3.03905,-34.76984 l 0.89291,-15.26984 -2.88243,-5.63614 c -1.58534,-3.09988 -3.62342,-6.45493 -4.52908,-7.45567 -0.90565,-1.00074 -2.39971,-4.12956 -3.32012,-6.95292 l -1.67347,-5.1334 -1.77994,8.3589 c -6.48857,30.4714 -25.08141,56.02302 -49.10747,67.48706 -11.6598,5.56348 -20.88992,7.44742 -39.5,8.06228 -25.16038,0.83127 -37.8358,-2.01079 -52.39348,-11.74756 -16.96571,-11.34736 -32.23232,-32.51686 -39.13829,-54.27125 -8.45597,-26.63703 -7.06351,-59.56598 3.60227,-85.18633 6.91741,-16.61637 22.36553,-35.594152 35.27915,-43.339903 15.07466,-9.04197 27.18667,-11.609286 51.15035,-10.842056 28.18355,0.902335 41.55549,5.534296 59.29765,20.540361 14.73053,12.458863 28.17116,38.086088 32.24543,61.482278 0.63923,3.67072 1.33656,6.67403 1.54962,6.67403 0.21306,0 1.68934,-2.87139 3.28061,-6.38086 2.721,-6.00104 3.18974,-6.47935 7.87467,-8.03543 3.86928,-1.28517 5.94318,-1.43849 9.28905,-0.68673 3.58694,0.80594 4.9521,0.63905 8.16012,-0.99756 3.36368,-1.71602 5.55331,-1.9295 17.25603,-1.68242 15.63016,0.33001 16.3905,0.67558 23.371,10.62171 L 451.14835,153 h 69.83602 69.83603 l 3.39037,-6.25 c 4.68465,-8.63592 9.32787,-11.10992 19.5293,-10.4056 3.98204,0.27493 8.92933,0.0334 10.99397,-0.53663 2.62241,-0.72408 5.71495,-0.70833 10.25993,0.0523 3.57832,0.59883 8.79322,1.33081 11.58868,1.62661 l 5.08264,0.53783 1.73222,-6.26224 c 6.68922,-24.18264 26.05241,-49.502262 44.91902,-58.736831 11.6466,-5.700619 18.03311,-7.12327 34.76776,-7.74483 33.55522,-1.246312 52.51943,4.765929 71.13634,22.552419 13.6663,13.056702 23.05564,29.595912 28.47991,50.167002 5.12149,19.42285 4.14006,47.97936 -2.33017,67.80037 -10.52624,32.24626 -35.0263,55.98616 -64.87037,62.85766 -11.3638,2.61647 -42.0971,2.6062 -51.5,-0.0172 -14.34319,-4.00177 -29.54985,-14.76607 -40.4607,-28.6408 -1.51379,-1.925 -2.4608,-2.62719 -2.10446,-1.56042 1.284,3.8439 6.62429,31.63292 8.11548,42.23011 1.86652,13.26451 2.06094,33.08701 0.39066,39.83031 -1.47109,5.93913 -4.90899,13.09786 -8.21566,17.10744 -1.31201,1.59091 -4.54445,6.26756 -7.1832,10.39256 -8.04456,12.57555 -17.32895,23.78535 -32.9222,39.74961 l -14.8952,15.2496 0.19451,8.84936 c 0.22046,10.03032 -1.66669,19.62762 -5.41917,27.55972 -2.25373,4.76398 -2.50006,6.5228 -2.50006,17.85023 0,11.85711 -0.72675,17.43912 -4.45808,34.24148 -0.93465,4.2088 -1.79467,14.77547 -2.15683,26.5 -0.49984,16.18183 -0.3174,20.77622 1.07213,27 4.0221,18.0151 8.70047,47.00464 12.44015,77.08531 5.73537,46.13337 8.10263,68.00023 8.10263,74.84564 0,5.50447 -0.2187,6.08517 -2.88489,7.66013 l -2.88489,1.70414 0.0346,15.60239 c 0.0261,11.75697 -0.37522,16.95794 -1.62831,21.10239 -3.81396,12.61423 -4.60538,19.19671 -5.59815,46.56136 -0.55748,15.36625 -1.6912,36.48864 -2.51939,46.93864 -0.82818,10.45 -1.50746,23.5 -1.50952,29 l -0.004,10 6.24713,6.50897 c 3.43592,3.57993 11.40275,10.92216 17.70407,16.31607 9.90187,8.47597 13.4039,10.75637 25.801,16.80072 15.8745,7.7398 18.23152,10.00003 18.23832,17.48938 0.004,4.90806 -2.7,8.81641 -7.48379,10.8152 -12.34453,5.15788 -33.95929,5.90162 -59.96855,2.06347 -9.32584,-1.3762 -23.95084,-3.19481 -32.5,-4.04135 -29.30159,-2.90147 -29.8931,-3.45146 -27.47838,-25.54952 1.51388,-13.85415 3.80786,-22.75949 7.98739,-31.00739 1.53624,-3.03162 2.24558,-5.80358 1.94135,-7.58634 -0.26338,-1.54513 -1.1917,-7.30927 -2.06263,-12.80927 -0.87093,-5.5 -4.23097,-22.15 -7.46674,-37 -3.23578,-14.85 -6.16758,-30.6 -6.5151,-35 -0.80145,-10.14697 1.35061,-24.73033 5.61307,-38.03686 l 3.16807,-9.89008 -1.72277,-5.53653 c -4.59374,-14.76303 -7.58658,-21.02655 -10.83631,-22.67858 -1.74437,-0.88677 -3.28839,-1.70938 -3.43115,-1.82803 -0.14277,-0.11866 1.50588,-7.59893 3.66366,-16.62283 4.57641,-19.13868 7.28478,-32.54574 10.08173,-49.90709 2.36107,-14.65565 2.46046,-17 0.72077,-17 -1.59941,0 -1.69589,0.34067 -12.71775,44.90663 -4.95217,20.02365 -9.46504,36.96223 -10.02861,37.64129 -0.56357,0.67906 -2.94991,1.52336 -5.30297,1.87623 l -4.2783,0.64157 -1.223,7.21714 c -1.91514,11.30166 -5.1455,19.14421 -14.03654,34.07747 l -8.24321,13.84515 -3.90505,21.64726 c -4.50154,24.95381 -8.32114,39.48591 -17.91175,68.14726 -3.77282,11.275 -7.1506,21.89524 -7.50617,23.60052 -0.56261,2.69824 0.12888,4.14626 5.32943,11.16024 3.28675,4.43285 9.52088,11.64783 13.85362,16.03329 6.58151,6.66161 9.50143,8.76347 17.74599,12.77422 C 515.80337,932.02154 520,936.74058 520,946.51563 c 0,3.61241 -0.53322,5.07404 -2.52425,6.91926 -3.13737,2.90762 -12.06137,6.29346 -19.97575,7.57897 -5.69273,0.92465 -22.53175,1.11036 -29,0.31982 z m -30.94634,-67.80311 c 2.72049,-1.35818 7.10977,-4.39568 9.75395,-6.75 4.80674,-4.27979 4.80823,-4.28313 8.17661,-18.28057 1.85295,-7.7 5.67864,-21.425 8.50155,-30.5 7.63153,-24.53369 13.76602,-49.08967 15.38864,-61.59981 C 480.92253,764.46438 482.45645,760.54875 490.5,748 c 5.96528,-9.30645 9.5418,-16.53099 11.13865,-22.5 2.47128,-9.23764 2.55191,-9.1293 -7.38865,-9.92803 -8.17063,-0.65653 -33.17887,-4.83997 -36.46034,-6.09919 -1.21106,-0.46473 -1.83563,2.47207 -3.55837,16.73178 -2.17664,18.01678 -3.36432,22.98617 -5.3901,22.55276 -1.46085,-0.31254 -10.91403,15.61804 -13.79216,23.24268 -4.57623,12.12317 -5.20553,17.91377 -5.59689,51.5 -0.20509,17.6 -0.90082,40.12978 -1.54607,50.06618 -1.54231,23.75032 -0.84133,25.20091 9.64759,19.96439 z m 145.99782,-9.67098 c 2.77832,-1.0201 6.56074,-3.4119 8.40539,-5.31509 l 3.3539,-3.46035 0.78977,-24.79207 c 0.43437,-13.63565 1.25272,-30.86708 1.81854,-38.29208 0.56583,-7.425 1.25758,-23.175 1.53722,-35 0.46347,-19.59815 0.77424,-22.5615 3.51323,-33.5 2.34859,-9.37939 3.0076,-14.22471 3.01763,-22.18713 L 606,711.12574 l -3.25,0.424 c -1.7875,0.2332 -13.15,1.36999 -25.25,2.5262 -12.1,1.15621 -22.19756,2.29718 -22.43902,2.53549 -0.24147,0.2383 0.58339,2.78572 1.83302,5.66093 4.28382,9.85644 7.35043,18.22969 7.82414,21.36351 0.32347,2.13992 -0.70136,6.07364 -3.22683,12.38586 -4.30353,10.75631 -6.49901,22.00604 -6.63117,33.97827 -0.077,6.97709 0.72276,11.74743 4.46389,26.62529 2.96002,11.77149 5.81247,26.97767 8.1371,43.37827 1.96867,13.88914 3.81272,25.63052 4.0979,26.09196 0.6537,1.05771 5.46543,0.16059 11.99245,-2.23593 z M 556,536.98015 c 12.35879,-1.07762 27.78892,-3.61363 29.89083,-4.91268 0.90556,-0.55967 1.69944,-6.74539 2.65446,-20.68297 0.83778,-12.22649 2.20512,-23.54318 3.55039,-29.3845 1.74253,-7.56631 2.22659,-13.06206 2.37813,-27 0.17959,-16.51768 0.29793,-17.5 2.10823,-17.5 1.56847,0 2.31691,-1.54888 4.10735,-8.5 3.70401,-14.38026 2.89321,-23.97504 -3.71427,-43.9533 -3.18514,-9.63054 -3.78657,-12.5305 -2.93047,-14.13012 2.40553,-4.49478 11.2551,1.9268 15.01421,10.89488 l 2.55887,6.10466 10.55142,-10.70806 c 13.39399,-13.59284 19.23225,-20.75873 29.0924,-35.70806 4.35316,-6.6 8.71439,-12.9 9.69162,-14 5.00541,-5.63428 7.31278,-24.10712 5.09554,-40.79502 -0.67267,-5.06274 -3.6447,-21.35498 -6.60452,-36.20498 -6.42153,-32.21811 -8.29923,-45.90122 -6.65924,-48.52726 0.86293,-1.38177 0.72593,-3.86148 -0.57651,-10.43424 l -1.70844,-8.62173 -5,-1.40252 c -2.75,-0.77138 -8.05466,-1.70692 -11.78813,-2.07896 -10.97657,-1.09383 -13.45501,-4.95878 -6.09628,-9.50673 l 3.41714,-2.11191 -3.98557,-4.76032 c -6.19639,-7.40091 -6.51724,-7.56986 -9.85816,-5.19091 -5.26006,3.74549 -9.79467,9.65453 -11.16509,14.54919 -1.15222,4.11533 -1.143,4.94409 0.0628,5.64714 0.77729,0.45318 5.91325,4.33718 11.41325,8.63111 7.72863,6.03385 10.54808,8.91285 12.41297,12.67516 l 2.41298,4.86802 -2.69105,14.18008 c -3.94051,20.76388 -6.8131,50.47463 -6.44425,66.65189 0.29685,13.0197 0.43771,13.81274 3.48554,19.62381 3.20898,6.11832 3.07328,8.30818 -0.51487,8.30818 -3.22505,0 -26.20658,20.4415 -30.16132,26.82774 -2.89291,4.67157 -4.99366,5.56543 -8.0495,3.42504 -1.98108,-1.38761 -2.64511,-1.33755 -7.31469,0.55143 -2.8247,1.14268 -7.00753,2.56055 -9.2952,3.15083 C 566.53404,348.19528 561,352.90849 561,355.7619 561,357.70552 554.13801,369 552.95716,369 c -1.52569,0 -5.08554,-10.18661 -5.90395,-16.89432 -0.92826,-7.60797 -2.11076,-9.48018 -5.47445,-8.66752 -3.63291,0.8777 -15.80164,-5.7121 -20.35179,-11.02121 -2.31773,-2.70432 -4.21696,-5.47945 -4.22051,-6.16695 -0.0123,-2.37624 4.19062,-1.23715 8.2473,2.23521 4.77919,4.09082 5.63073,4.25635 25.24624,4.90791 l 15,0.49825 2.44901,-10.01368 c 1.96762,-8.04536 2.19234,-10.1723 1.14323,-10.82068 -0.91744,-0.56701 -0.97662,-1.01043 -0.199,-1.49103 0.60872,-0.37621 1.10676,-2.20181 1.10676,-4.0569 0,-2.67829 -0.6693,-3.83507 -3.25,-5.61715 -1.7875,-1.23434 -3.4534,-2.40588 -3.70201,-2.60343 -0.62257,-0.49472 -0.10415,-7.38862 0.64703,-8.60404 0.3626,-0.5867 1.05561,-0.38348 1.70762,0.50074 1.24431,1.68748 8.26415,2.98248 10.72678,1.97886 1.42927,-0.58249 1.21799,-1.58535 -1.71991,-8.16406 -1.84214,-4.125 -3.36288,-8.0625 -3.37943,-8.75 -0.0421,-1.74758 -0.84386,-1.58977 -6.49877,1.2791 -4.28761,2.1752 -5.79543,2.43576 -11,1.90086 -3.31722,-0.34093 -7.71881,-1.04448 -9.78131,-1.56346 -3.24456,-0.81641 -3.75,-1.33095 -3.75,-3.81751 0,-2.66863 0.5893,-3.10759 8.25,-6.14531 6.71275,-2.66183 9.69408,-3.28372 16,-3.33754 L 572,264.5 v -4.95558 c 0,-3.59995 -1.01282,-7.15621 -3.70238,-13 -2.03631,-4.42443 -3.77655,-8.17217 -3.86721,-8.3283 -0.0907,-0.15613 -6.18709,-0.92344 -13.54762,-1.70513 -7.36054,-0.78168 -16.02309,-2.33537 -19.25012,-3.45262 -3.22703,-1.11726 -6.21252,-1.81804 -6.63442,-1.55729 -0.42191,0.26076 -1.32673,3.43999 -2.01071,7.06497 -0.99824,5.29044 -0.99162,8.06405 0.0335,14.05717 1.0322,6.03432 1.0344,8.56051 0.0115,13.17154 -1.99907,9.01113 -5.94687,18.04327 -8.19883,18.75801 -2.39257,0.75938 -2.36604,0.78337 -5.12766,-4.63832 -1.90593,-3.74178 -2.98237,-4.60579 -7.91221,-6.35072 l -5.70614,-2.01972 -2.79386,2.10094 c -3.47556,2.61357 -3.36437,6.21444 0.55066,17.83263 2.61154,7.74996 2.8139,8.02399 7.09232,9.60442 3.87029,1.42967 4.56339,2.15963 5.71845,6.02243 1.78111,5.95652 1.80279,5.89557 -2.09626,5.89557 -1.89254,0 -3.73667,0.47842 -4.09806,1.06316 -0.36138,0.58474 -0.11187,8.98227 0.55448,18.66117 l 1.21155,17.59802 4.3282,7.08882 c 2.38051,3.89886 3.95979,7.46098 3.50951,7.91582 -1.24967,1.26235 -8.3052,-1.21074 -11.92688,-4.18059 -3.71093,-3.04303 -19.70988,-6.68328 -21.82735,-4.96638 -0.65424,0.53047 -2.45424,0.81948 -4,0.64224 -2.55056,-0.29246 -2.86118,-0.76354 -3.35885,-5.09399 -0.48955,-4.25986 -1.29407,-5.5316 -7.5,-11.8556 -3.82339,-3.89614 -9.58797,-9.30757 -12.81018,-12.02541 l -5.85856,-4.94154 -2.38697,3.23536 c -1.31283,1.77945 -2.95148,3.59377 -3.64144,4.03183 -1.49417,0.94865 -3.35777,1.09706 -2.45632,0.19561 0.34732,-0.34732 0.23856,-1.36566 -0.24167,-2.26299 -0.52374,-0.97862 -0.27413,-6.02822 0.62377,-12.61852 1.151,-8.44802 1.36082,-16.53317 0.90796,-34.98701 -0.59127,-24.09374 -1.62613,-34.75577 -5.74292,-59.16858 l -2.22065,-13.16859 4.59432,-6.83141 c 2.52688,-3.75728 7.33942,-10.09392 10.69454,-14.08142 3.35512,-3.9875 5.64713,-7.25 5.09336,-7.25 C 447.45309,180 447,179.14195 447,178.09322 c 0,-2.92621 -5.39964,-14.30288 -10.71864,-22.58345 -4.01987,-6.25809 -5.21933,-7.44883 -7.53136,-7.47667 -3.28407,-0.0395 -3.29256,0.0368 -0.7495,6.72763 2.49641,6.56811 2.49635,7.83343 -5e-4,9.9713 -2.58568,2.21393 -2.52476,3.05434 0.25,3.44842 1.38442,0.19662 3.0022,1.72438 4.20528,3.9713 2.61004,4.87461 1.24074,7.84881 -5.00571,10.87266 -4.64486,2.24854 -4.80779,2.25737 -11.82965,0.64105 -3.91596,-0.90139 -9.14492,-1.93318 -11.61992,-2.29288 -3.43734,-0.49956 -5.16659,-1.44728 -7.3228,-4.01329 -4.24004,-5.04588 -5.0595,-4.39497 -4.26235,3.38567 0.50204,4.90016 1.47729,7.97713 3.5657,11.25 1.58107,2.47777 3.94094,7.43004 5.24417,11.00504 2.02586,5.55731 2.2679,7.5152 1.66895,13.5 -0.3853,3.85 -1.22316,13.75 -1.86191,22 -0.63875,8.25 -1.8819,20.175 -2.76255,26.5 -1.04843,7.53004 -1.63018,19.26731 -1.68519,34 -0.1057,28.30666 0.32074,30.12012 9.09061,38.65814 6.41739,6.24772 7.9518,8.99284 4.39577,7.86421 -1.65021,-0.52376 -1.23765,1.02297 2.84932,10.68261 9.23223,21.82052 13.48243,28.36419 27.45399,42.26856 9.6115,9.56528 10.05148,10.1929 10.74904,15.33324 1.32666,9.77623 15.28789,41.81481 24.08072,55.26104 5.07028,7.75362 8.02501,25.63426 7.70092,46.60236 l -0.22921,14.82984 6.91241,1.76181 c 3.80183,0.969 12.53741,2.42782 19.41241,3.24182 21.68737,2.5678 31.09514,2.86335 47,1.47652 z M 555.33803,440.75 c -0.429,-0.6875 -1.07476,-8.675 -1.43503,-17.75 -0.36026,-9.075 -1.20211,-19.80528 -1.87078,-23.84507 -0.66867,-4.03979 -1.0004,-8.16862 -0.73717,-9.17518 0.32983,-1.26131 0.0476,-1.66471 -0.90823,-1.29794 -0.76275,0.29269 -1.38682,0.034 -1.38682,-0.57482 0,-0.60885 0.7875,-1.10142 1.75,-1.09461 2.34845,0.0166 5.17893,4.61268 9.85621,16.00424 3.67571,8.95224 3.89379,10.07146 3.89379,19.98338 0,9.00209 -0.32388,11.1063 -2.27032,14.75 -2.29248,4.29147 -5.27548,5.59 -6.89165,3 z m -62.05137,-10.61764 c -2.73834,-2.16453 -6.43064,-5.6673 -8.20511,-7.78394 -3.86302,-4.60789 -18.52491,-33.82204 -17.66929,-35.20646 0.33011,-0.53413 0.0349,-1.17297 -0.65603,-1.41965 -0.69093,-0.24667 -1.01226,-0.71658 -0.71407,-1.04424 1.33032,-1.46176 11.61302,4.79327 17.36976,10.56614 8.23536,8.25843 12.12641,16.2699 13.96626,28.75579 0.76992,5.225 1.28453,9.62777 1.14357,9.78394 -0.14096,0.15616 -2.49675,-1.48705 -5.23509,-3.65158 z M 499.2,288.8 c -0.66,-0.66 -1.2,-2.74789 -1.2,-4.63976 0,-2.10322 -0.67997,-3.95593 -1.75,-4.76819 -1.623,-1.23204 -1.58917,-1.33075 0.46607,-1.36025 2.40645,-0.0345 9.28393,2.92748 9.28393,3.99842 0,0.36289 -0.85119,1.43012 -1.89152,2.37161 -1.12427,1.01745 -1.6854,2.50001 -1.38337,3.65499 0.57817,2.21093 -1.59847,2.66982 -3.52511,0.74318 z m -12.89621,37.38344 c -0.24086,-14.29893 -0.24492,-14.3213 -3.29354,-18.1705 -4.46119,-5.63271 -6.75217,-11.4928 -9.66608,-24.72487 -4.19321,-19.04137 -2.38531,-36.37372 5.39898,-51.75994 3.7945,-7.5001 13.42985,-16.53585 22.25685,-20.87183 11.60568,-5.70092 19.66643,-7.02381 37,-6.07227 22.03012,1.20937 24.96421,1.06865 31.29521,-1.50091 3.37559,-1.37005 6.63782,-2.06576 8.0383,-1.71426 3.32359,0.83416 10.06093,11.20632 9.95216,15.32137 -0.11521,4.35852 -4.71986,14.1125 -8.51584,18.03899 l -3.12189,3.22923 3.65623,9.77077 c 5.71338,15.26826 6.19518,18.55187 3.51075,23.92692 l -2.23439,4.47393 2.71952,7.68497 c 3.66186,10.34787 3.53866,13.25084 -0.76447,18.0139 -2.97754,3.29578 -3.38389,4.33094 -2.89142,7.36573 0.31516,1.94206 0.0487,4.51076 -0.59218,5.70821 -0.772,1.44248 -0.93688,4.49418 -0.48862,9.04331 l 0.67657,6.86613 3.13003,-1.07111 c 1.72152,-0.58911 6.53535,-4.25939 10.69739,-8.15616 4.16204,-3.89678 9.91375,-8.66005 12.78158,-10.58505 4.72706,-3.17298 5.16521,-3.7803 4.68946,-6.5 -2.54424,-14.54472 -1.61224,-32.27078 3.65419,-69.5 1.67276,-11.825 3.00228,-22.79582 2.95449,-24.37961 -0.1261,-4.17869 -2.08048,-6.61588 -10.83336,-13.50956 -4.29754,-3.38471 -8.37329,-6.60931 -9.05723,-7.16579 -0.68393,-0.55648 -1.52564,-2.77608 -1.87046,-4.93244 -1.18878,-7.43423 3.42951,-6.95396 -69.69905,-7.24825 L 459.99971,177.5 l 1.4e-4,4.18471 c 1.3e-4,3.60933 -0.91387,5.39676 -6.64752,13 -3.65621,4.84841 -7.74542,10.00584 -9.08712,11.46095 l -2.43946,2.64566 1.54587,7.85434 c 4.28565,21.77465 6.58772,49.62673 6.61426,80.02411 l 0.0141,16.16977 6.75,4.91973 c 3.7125,2.70586 10.575,8.98516 15.25,13.954 7.25027,7.70599 8.94438,9.01607 11.52248,8.9105 L 486.54495,340.5 Z M 316.20382,249.39736 c 9.75538,-4.91273 17.15588,-10.68673 23.41618,-18.2697 26.90422,-32.58851 27.37149,-90.6497 0.99963,-124.21102 -4.888,-6.22057 -14.30013,-13.661849 -23.82498,-18.836169 L 310.5,84.660942 l 7.20271,6.719378 c 3.96149,3.695658 9.28836,9.49391 11.8375,12.88501 6.51265,8.66374 13.99049,24.51226 17.10777,36.25815 2.30406,8.68172 2.66086,12.05307 2.74913,25.97652 0.14865,23.44683 -3.41831,37.54411 -14.43767,57.06036 -4.305,7.62452 -18.83855,23.7653 -24.95944,27.71964 -4.33846,2.80281 -1.22269,1.85729 6.20382,-1.88264 z m 462.26798,-3.66554 c 7.42487,-3.87863 22.62707,-18.84222 27.38281,-26.95303 7.5996,-12.96093 11.92559,-27.91668 12.82515,-44.33895 1.88563,-34.42377 -12.4609,-66.95016 -36.49141,-82.73318 -10.5104,-6.903134 -12.21491,-7.440948 -6.57131,-2.073401 12.70333,12.081941 23.402,30.429761 28.08278,48.160931 3.65415,13.84221 4.35342,37.5162 1.51248,51.20581 -4.35407,20.98096 -13.0321,37.02772 -28.21154,52.16665 -10.07099,10.04412 -9.91919,10.51523 1.47104,4.56517 z m -43.98434,-54.54568 c 12.71894,-8.81523 14.15317,-34.05057 2.53194,-44.54965 -8.04127,-7.2648 -17.03165,-7.07383 -24.2694,0.51554 -4.65575,4.88194 -4.71633,6.4441 -0.28215,7.27596 1.90732,0.35782 4.10561,1.28833 4.88509,2.0678 1.15328,1.15329 2.00449,1.19557 4.57044,0.22703 4.32616,-1.63294 7.94484,0.4877 9.74382,5.71013 1.82335,5.29322 0.79486,10.00046 -2.85627,13.07269 -3.31167,2.78659 -4.09038,2.95035 -6.89409,1.44986 -1.46648,-0.78484 -2.5067,-0.65438 -4.18426,0.52479 -1.22792,0.86311 -3.92235,2.02609 -5.98763,2.5844 -3.70081,1.00046 -3.73454,1.05425 -2.33531,3.72521 1.82749,3.48848 7.38383,8.80695 10.59036,10.137 3.74252,1.55236 10.00168,0.36824 14.48746,-2.74076 z m -459.16081,1.45074 c 4.66439,-1.94891 11.1574,-9.7548 12.79058,-15.37683 2.78697,-9.59387 0.42823,-21.82945 -5.41608,-28.09491 -5.42252,-5.81329 -14.55065,-7.75398 -21.33304,-4.53553 C 254.17721,148.04192 248,158.81023 248,167.93333 c 0,16.91555 14.52964,30.05048 27.32665,24.70355 z m -9.30694,-14.92133 c -3.31921,-1.67944 -4.98711,-5.25955 -5.00497,-10.74304 -0.0263,-8.08733 5.67256,-12.38417 12.12188,-9.13961 7.1205,3.58221 7.4529,15.00765 0.55891,19.21119 -3.74424,2.28301 -4.38075,2.33869 -7.67582,0.67146 z m 157.48552,-4.72401 c 0.34279,-0.55465 -0.19315,-1.34215 -1.19099,-1.75 -2.48273,-1.01478 -2.75409,-3.18946 -0.6017,-4.82211 1.07364,-0.81437 1.28827,-1.36852 0.53746,-1.38763 -0.68807,-0.0175 -1.25,-1.26333 -1.25,-2.77129 0,-4.05896 -3.22576,-11.18509 -5.37485,-11.87375 -3.12642,-1.00185 -3.52727,1.58158 -1.08447,6.98934 1.27302,2.81814 2.62948,7.3739 3.01436,10.1239 0.38489,2.75 0.89401,5.3375 1.13139,5.75 0.6331,1.10014 4.09386,0.91452 4.8188,-0.25846 z M 408.62071,169.25 c -0.28274,-0.9625 -0.82321,-3.55 -1.20104,-5.75 -1.26963,-7.39266 -5.25779,-12.5 -9.76087,-12.5 -1.74589,0 -1.70119,0.25759 0.56396,3.25 3.12695,4.1309 3.97117,7.58699 2.82743,11.57499 -0.85395,2.97755 -0.72583,3.2073 2.27242,4.07504 4.88462,1.41369 5.86885,1.29294 5.2981,-0.65003 z m 242.27961,-4 c -0.12955,-7.47325 -1.06909,-10.65882 -3.26858,-11.0824 -1.57601,-0.30352 -1.70831,0.21287 -1.15156,4.49474 0.34596,2.66071 0.8405,5.86004 1.09898,7.10962 0.29825,1.44183 -0.085,2.48491 -1.04885,2.85478 -2.17137,0.83323 -0.85492,2.37326 2.02871,2.37326 2.31652,0 2.4359,-0.29318 2.3413,-5.75 z m -12.01042,-4.63208 c -0.80555,-5.41612 -1.65026,-7.95449 -2.86309,-8.60357 -2.40382,-1.28649 -14.34435,-3.76026 -21.60265,-4.47552 -5.85827,-0.57729 -6.11922,-0.50351 -7.28744,2.06044 -0.66638,1.46255 -1.02059,2.85019 -0.78714,3.08364 0.96039,0.96039 14.49832,0.46886 16.49332,-0.59883 1.90364,-1.0188 2.66873,-0.65151 6.52165,3.13086 2.40076,2.35678 5.20873,5.86006 6.23995,7.78506 4.31897,8.0623 4.78821,7.72207 3.2854,-2.38208 z"
       id="path1" />
  </g>
</svg>
