<?xml version="1.0" encoding="UTF-8" standalone="no"?>
<!-- Created with Inkscape (http://www.inkscape.org/) -->

<svg
   version="1.1"
   id="svg1"
   width="1024"
   height="1024"
   viewBox="0 0 1024 1024"
   xmlns="http://www.w3.org/2000/svg"
   xmlns:svg="http://www.w3.org/2000/svg">
  <defs
     id="defs1" />
  <g
     id="g1">
    <path
       style="fill:#000000"
       d="m 474.20372,927.88854 c -6.73451,-0.90184 -14.52304,-2.74494 -32.71974,-7.74289 -3.8588,-1.05986 -13.0838,-2.668 -20.5,-3.57364 C 413.56779,915.66638 405.25,914.43724 402.5,913.8406 393.01322,911.78234 388,906.94453 388,899.84795 c 0,-6.40829 8.92677,-41.39387 13.15671,-51.56349 3.7459,-9.00586 6.09648,-12.03414 10.1562,-13.08434 4.50193,-1.1646 6.48282,-5.19336 14.60558,-29.7051 8.47027,-25.5604 11.6533,-37.63571 12.51958,-47.49502 1.37748,-15.6773 2.70249,-23.24876 6.14766,-35.12941 0.42817,-1.47654 -1.85218,-1.62044 -24.30662,-1.53388 -27.26507,0.10512 -33.58025,-0.73327 -48.27911,-6.40937 -33.08162,-12.77477 -51.78232,-46.2335 -45.62022,-81.62232 2.85725,-16.40914 9.44673,-31.1169 20.06924,-44.79468 2.55844,-3.29431 10.36655,-12.23565 17.35135,-19.86965 17.39016,-19.00647 24.49746,-28.68676 17.87708,-24.34892 -6.55141,4.29265 -23.19969,13.04316 -28.07606,14.75706 -6.53665,2.29745 -15.28647,2.52742 -20.0728,0.52756 -4.04197,-1.68884 -12.93277,-8.17977 -16.72498,-12.21045 -3.24601,-3.45013 -6.48952,-10.4961 -7.3232,-15.90842 -0.33528,-2.17664 -0.15956,-12.73252 0.39049,-23.45752 1.10393,-21.5244 2.47178,-27.76084 8.88296,-40.5 5.0406,-10.01581 11.87529,-19.81163 26.16429,-37.5 6.88665,-8.525 16.50529,-20.45 21.37476,-26.5 10.52242,-13.07343 23.88851,-32.53459 27.08805,-39.44047 l 2.28955,-4.94176 6.66475,6.71621 c 3.66561,3.69392 6.66474,7.25041 6.66474,7.90332 0,0.6529 -2.5303,4.01661 -5.62289,7.4749 -15.47155,17.30107 -52.05739,64.50073 -62.62099,80.7878 -13.05575,20.1295 -14.57436,25.42189 -14.96724,52.16129 l -0.28888,19.66129 2.5,2.69494 c 1.375,1.48222 4.46342,4.05379 6.86315,5.7146 3.90459,2.7023 4.90044,2.95603 9.47539,2.41419 5.96862,-0.70689 22.60257,-8.66354 30.16146,-14.42735 4.53651,-3.45919 5,-4.18474 5,-7.82705 0,-3.09117 1.21293,-5.99264 5.27397,-12.61589 11.30058,-18.43044 16.97516,-34.05007 22.26144,-61.27602 4.06853,-20.95413 15.65553,-66.97388 18.03947,-71.64677 1.02862,-2.01626 4.02007,-5.39557 6.64767,-7.50958 9.39795,-7.56103 33.99789,-33.1347 36.15054,-37.58149 C 469.4814,328.43984 470,325.47888 470,319.61853 c 0,-9.15755 -1.02237,-11.63228 -4.78518,-11.58291 -3.05629,0.0401 -13.47901,2.39159 -15.13395,3.4144 -1.28165,0.7921 -1.47538,11.54998 -0.20799,11.54998 0.48009,0 2.98788,-0.93556 5.57287,-2.07903 6.29924,-2.78645 7.96992,-2.05668 7.26822,3.17485 -0.59677,4.44927 -2.91927,7.63871 -6.58215,9.03913 -1.3025,0.49798 -6.85059,1.53192 -12.32908,2.29764 -5.47849,0.76572 -10.18772,1.61906 -10.46496,1.89629 -0.27723,0.27724 -0.91193,3.75237 -1.41044,7.7225 C 430.92474,353.03608 429.85335,355 426.5,355 c -3.07093,0 -4.23351,-1.68107 -5.20763,-7.53013 -0.79291,-4.76101 -0.97404,-4.98318 -4.31003,-5.28668 -2.48031,-0.22565 -4.72401,-1.5205 -7.79752,-4.5 l -4.31519,-4.18319 0.66608,-7 c 0.36634,-3.85 0.99358,-7.35041 1.39386,-7.77868 1.08537,-1.16126 6.07043,3.14224 6.07043,5.24048 0,3.16288 3.34209,6.38179 5.81207,5.59785 1.95172,-0.61945 2.18793,-1.3886 2.18793,-7.12416 0,-5.98308 -0.25121,-6.70779 -3.61636,-10.43261 -2.62813,-2.90902 -4.40437,-4.00288 -6.5,-4.00288 -2.84316,0 -2.88372,-0.0807 -2.88963,-5.75 -0.003,-3.1625 -0.29393,-9.44868 -0.64585,-13.9693 l -0.63986,-8.2193 2.87844,-1.09438 c 6.23193,-2.36938 22.2517,-6.11285 28.41326,-6.63956 6.14588,-0.52538 6.92226,-0.33645 14.25077,3.46777 4.26293,2.21288 10.66577,6.31422 14.22853,9.11409 L 472.95707,290 h 30.43614 30.43615 l 0.63613,-7.25 0.63613,-7.25 -7.48503,-14.71021 c -8.09315,-15.90533 -14.67331,-34.48803 -16.66756,-47.07 -1.48004,-9.3377 -0.73491,-25.64448 1.56364,-34.21979 6.67131,-24.88889 25.99744,-44.77131 50.98733,-52.45496 17.0729,-5.24942 31.67585,-5.98013 69.35844,-3.47059 26.35083,1.75487 34.47365,1.38254 44.66573,-2.04741 3.83007,-1.28894 7.25876,-2.1612 7.61931,-1.93836 1.58894,0.98201 3.29919,11.73275 3.32663,20.91132 0.0262,8.77521 -0.29595,10.69508 -2.63052,15.67515 -1.46322,3.12133 -4.53719,7.71121 -6.83103,10.19974 l -4.17062,4.52459 3.97894,11.80026 c 6.64957,19.72049 7.69095,24.64421 6.25365,29.56756 -0.67963,2.32799 -2.5144,5.85135 -4.07728,7.82971 l -2.84161,3.59701 6.51629,16.26917 c 6.95803,17.37206 7.9636,22.89784 4.99215,27.43284 -0.97917,1.49441 -3.28886,2.96547 -5.65741,3.60325 -2.20147,0.59279 -4.01876,1.17296 -4.03843,1.28926 -1.09376,6.46847 -4.36384,23.28611 -6.36053,32.71146 -5.90256,27.863 -8.14198,29.80966 -31.16864,27.09397 -5.34405,-0.63026 -9.87664,-0.98573 -10.07243,-0.78994 -0.19579,0.19579 -0.96487,2.37918 -1.70908,4.85198 l -1.3531,4.496 9.88543,4.28024 c 13.45611,5.82629 19.05395,11.02668 25.66412,23.84197 l 5.01659,9.72578 2.46068,-5.5 c 1.35338,-3.025 4.13152,-9.1 6.17365,-13.5 2.04213,-4.4 4.3422,-9.45372 5.11128,-11.23049 l 1.39832,-3.23048 -5.00526,-2.53636 c -5.59894,-2.8372 -6.28257,-4.90013 -3.10338,-9.36489 1.04604,-1.46902 2.50854,-4.09938 3.25,-5.84524 l 1.34811,-3.17429 8.98696,4.69088 8.98696,4.69087 2.99506,6.85912 2.99507,6.85913 -2.57046,2.14087 c -1.56372,1.30239 -8.11692,13.45065 -16.73202,31.01766 L 672,409.25357 v 8.76726 c 0,30.61106 -8.15648,58.01483 -22.36233,75.13195 l -5.52128,6.65279 2.6918,1.00348 c 5.26235,1.96175 6.0812,2.06028 9.43257,1.13492 5.10375,-1.40922 11.2739,-7.26445 19.95008,-18.93186 9.52621,-12.81051 17.43402,-28.04617 22.10972,-42.59789 1.9288,-6.00282 7.1977,-26.88922 11.70866,-46.41422 4.51096,-19.525 10.22391,-43.12532 12.69544,-52.44516 4.97952,-18.77719 5.09055,-22.55368 0.77334,-26.30484 -2.48412,-2.15841 -3.34034,-2.25 -21.03376,-2.25 -14.10027,0 -18.43914,-0.2944 -18.4226,-1.25 0.045,-2.59672 3.92585,-18.78337 4.97227,-20.73862 1.07449,-2.00771 1.70903,-2.03655 38.29934,-1.74048 30.16136,0.24406 37.62484,0.57152 39.41467,1.72935 6.27615,4.05999 6.98146,14.20693 1.33805,19.24975 -2.97616,2.65942 -3.45325,2.75 -14.48463,2.75 h -11.40711 l 0.54948,7.26544 c 0.48442,6.40508 0.0629,9.03987 -3.55963,22.25 -2.26001,8.24151 -6.11774,23.75956 -8.57274,34.48456 -15.8704,69.33204 -20.83336,83.97799 -36.59714,108 -22.75081,34.66935 -33.28008,41.12881 -52.43271,32.16621 -3.76208,-1.76049 -6.91881,-3.08059 -7.01495,-2.93355 -0.0961,0.14704 -1.20505,2.74234 -2.46423,5.76734 -3.25229,7.81315 -11.61221,21.76983 -20.36569,34 l -7.51515,10.5 21.15927,0.73914 c 41.36148,1.44483 73.12493,5.13066 90.15926,10.46205 26.3138,8.23568 42.76997,24.64287 45.79805,45.66174 0.88149,6.11872 0.77843,9.60402 -0.54247,18.34544 -4.79746,31.74851 -18.91049,57.30376 -74.71557,135.29163 -11.21642,15.675 -22.37534,31.56005 -24.79761,35.3001 -4.92516,7.6046 -5.12787,6.37968 2.492,15.05805 2.34608,2.67199 4.2656,5.42518 4.2656,6.1182 0,0.69302 2.88555,2.94757 6.41233,5.01011 3.52679,2.06254 9.6218,6.19531 13.54449,9.18393 6.29272,4.79432 9.27534,6.1646 25.3418,11.64263 27.18704,9.2697 32.73289,13.33747 33.44978,24.53475 0.86364,13.4892 -8.7582,17.89628 -43.85425,20.08651 -19.97801,1.24676 -32.80093,0.29176 -53.39415,-3.9766 -13.44776,-2.78732 -17.7057,-3.19514 -41.14633,-3.94095 -29.9209,-0.95199 -35.97654,-1.86869 -40.8999,-6.19147 -6.13235,-5.38427 -6.75477,-14.42208 -2.43806,-35.40163 4.25112,-20.66077 9.85605,-32.78707 16.78953,-36.32427 2.29791,-1.17231 4.36051,-3.14885 5.0055,-4.79665 15.1533,-38.71325 19.04468,-50.76191 20.24669,-62.68865 1.72554,-17.12138 6.43178,-33.68229 13.64301,-48.00877 l 3.47045,-6.89471 -3.83095,0.62168 c -2.48155,0.4027 -4.48551,1.52024 -5.68925,3.17271 -3.46901,4.76218 -7.17147,5.92399 -20.73373,6.50612 -9.20786,0.39522 -13.23135,0.97318 -15,2.15469 -1.32933,0.88803 -9.83895,13.25152 -18.91028,27.47441 -19.25892,30.19601 -43.33531,66.59696 -58.13707,87.89712 l -10.44962,15.03731 3.30497,5.46269 c 1.81773,3.00448 3.82482,7.16809 4.4602,9.25246 0.83391,2.73562 2.56823,4.82064 6.23504,7.49584 2.79389,2.03834 9.27781,7.2445 14.40871,11.56925 6.9562,5.86326 11.59335,8.84532 18.23209,11.7247 13.10446,5.68371 16.59184,7.612 21.0488,11.6386 5.3432,4.82726 6.8902,8.10176 6.8902,14.5843 0,15.11337 -12.93181,19.54062 -59,20.19882 -14.025,0.20038 -28.78332,-0.0753 -32.79628,-0.61274 z m -30.25895,-79.37033 c 2.50538,-1.27495 8.56459,-4.84012 13.46492,-7.9226 4.90033,-3.08249 10.63364,-6.06873 12.74068,-6.6361 3.43346,-0.92453 4.95375,-2.61031 14.65083,-16.24554 24.19806,-34.02535 47.3337,-67.95051 54.70279,-80.21397 4.29642,-7.15 14.43303,-23.35 22.52579,-36 16.61631,-25.97336 19.68817,-31.6569 23.24083,-43 6.15216,-19.64292 3.77482,-34.4963 -7.29986,-45.60881 -9.72856,-9.76177 -23.80618,-13.85604 -68.47075,-19.91368 -21.55923,-2.92398 -26.30248,-2.86935 -31.82413,0.36656 -7.19446,4.21623 -14.22458,12.95448 -20.23851,25.15593 -11.29543,22.9169 -14.75372,45.386 -9.76692,63.45729 1.58038,5.727 5.66408,14.51339 7.18129,15.45107 0.48937,0.30245 2.6118,-2.24003 4.71652,-5.64995 7.56419,-12.25494 25.06201,-27.16697 39.23016,-33.4328 6.37501,-2.81933 9.6973,-2.18303 10.76256,2.06129 1.11134,4.42792 0.006,6.05108 -7.5707,11.1131 -14.5708,9.73535 -26.67133,24.06486 -36.0813,42.72765 -6.36662,12.62694 -9.6417,24.17094 -11.42784,40.28095 -0.79444,7.16541 -2.35977,16.61978 -3.4785,21.00971 -3.90107,15.30783 -13.21608,42.92852 -19.08787,56.59896 -6.26126,14.57721 -6.6484,16.04222 -4.66476,17.65268 3.38662,2.74949 9.77298,2.27065 16.69477,-1.25174 z m 165.25601,-18.64347 c 7.16765,-1.52201 26.7775,-11.96605 31.02451,-16.52339 0.94891,-1.01824 9.22939,-12.65135 18.40107,-25.85135 9.17169,-13.2 23.39756,-33.37568 31.61307,-44.83485 29.64635,-41.35141 43.46889,-64.55244 50.68327,-85.07148 4.03469,-11.47543 6.43495,-25.28392 5.55799,-31.97464 -2.36135,-18.01582 -16.73898,-30.73624 -41.9892,-37.14939 C 693.36482,585.64364 667.1527,582 657.94933,582 h -5.97417 l -3.61535,5.6517 c -14.61708,22.85018 -28.56682,62.72322 -29.50958,84.3483 -0.23145,5.30915 -0.15494,5.48872 2.205,5.17498 5.70137,-0.75796 24.17195,-7.68559 42.63362,-15.99028 24.88524,-11.19423 26.9074,-11.92717 29.10548,-10.54949 2.808,1.75995 2.54596,4.90762 -0.71801,8.62509 -2.89348,3.29548 -17.49876,12.52485 -34.38723,21.72997 -6.69334,3.64823 -8.50663,5.24803 -12.67349,11.18144 -11.61664,16.54149 -19.35355,36.55201 -21.16337,54.73633 -1.33563,13.41982 -8.30997,34.62844 -21.43899,65.19484 C 599.43596,819.03447 597,825.85947 597,827.26955 c 0,3.88099 3.08771,4.5403 12.20078,2.60519 z M 564.59996,581.11117 C 576.626,572.20326 601.818,541.42787 611.34979,524 616.07051,515.36867 620,504.74433 620,500.61203 c 0,-4.14832 2.6707,-7.64296 8.41253,-11.0079 9.68783,-5.67745 20.01533,-21.77707 23.15987,-36.10413 0.89464,-4.07611 1.83936,-15.56283 2.26172,-27.5 0.62661,-17.70981 0.99039,-20.94502 2.67281,-23.76963 1.8882,-3.17011 1.89494,-3.46991 0.22165,-9.84969 -2.69365,-10.27016 -8.8098,-22.36057 -13.39592,-26.48108 -2.21284,-1.98818 -7.10269,-4.75158 -10.91995,-6.17118 -11.53822,-4.29098 -10.3732,-4.62245 -15.33961,4.36443 -7.1377,12.91587 -14.65231,17.53137 -18.63843,11.44779 -2.27566,-3.4731 -1.26941,-7.07354 5.60095,-20.04064 6.5661,-12.39284 12.32379,-26.10944 11.51145,-27.42383 -0.29693,-0.48045 -6.88059,-4.81301 -14.63036,-9.62792 -21.38841,-13.28856 -26.73296,-18.88732 -30.97066,-32.44378 -1.6599,-5.31006 -1.8616,-5.52006 -5.97668,-6.22256 -2.34234,-0.39986 -6.22871,-1.47934 -8.63638,-2.39884 -2.40767,-0.9195 -4.57377,-1.47562 -4.81356,-1.23583 -0.23979,0.23979 -2.48057,9.49508 -4.97952,20.56731 -2.49894,11.07223 -4.77261,20.7285 -5.0526,21.45839 -0.40605,1.05852 -4.57795,1.25494 -20.61664,0.97067 -11.05917,-0.19601 -23.37441,-0.0503 -27.36719,0.3239 l -7.25962,0.68028 -0.67775,6.87809 c -1.08423,11.00323 -4.50361,16.54388 -19.80485,32.09116 -7.29369,7.41098 -16.02493,15.79996 -19.40276,18.64219 -5.53767,4.6596 -6.34263,5.83492 -8.18728,11.95422 -3.82266,12.68108 -8.18602,31.21587 -12.71946,54.03012 -6.25904,31.49824 -8.07824,37.57505 -17.8891,59.75643 l -2.65382,6 8.79558,-9.01168 c 36.2922,-37.18386 59.55869,-64.12531 67.44321,-78.09591 1.67381,-2.96583 3.6509,-5.39241 4.39355,-5.39241 2.09144,0 13.25871,15.03862 22.55168,30.36963 10.48802,17.30255 19.45817,27.29942 28.48166,31.74167 6.76807,3.33191 7.82827,5.06758 4.26144,6.97649 -3.59433,1.92363 -12.49275,0.38599 -20.40971,-3.52679 -8.76531,-4.33205 -17.45866,-13.16829 -25.41121,-25.82886 C 490.99831,451.92946 488.26151,448 487.93326,448 c -0.32824,0 -5.91671,5.9625 -12.41882,13.25 -21.79091,24.42306 -47.38388,51.21367 -56.8003,59.45831 -8.05163,7.04968 -10.05702,9.47855 -14.60655,17.69099 -6.80614,12.28587 -6.93861,12.8767 -3.4409,15.34662 9.07763,6.41022 24.4756,11.74524 42.33331,14.66747 C 459.31986,571.08396 530.44306,581 533.27797,581 c 2.20613,0 4.5273,-2.13911 12.75005,-11.75 12.51159,-14.62377 20.53727,-26.23814 28.38249,-41.07375 3.34922,-6.3335 6.83927,-11.97554 7.75567,-12.53787 2.90466,-1.78237 4.83382,0.93251 4.83382,6.80256 0,13.76164 -10.06618,33.26657 -27.21335,52.73045 -4.21251,4.78165 -6.29277,7.85961 -5.52247,8.17106 3.04782,1.23227 6.73423,0.43646 10.33578,-2.23128 z m 21.71338,-92.73699 c -0.34313,-0.89421 0.13367,-2.80671 1.05956,-4.25 13.03621,-20.32104 18.13604,-46.55324 14.44301,-74.29104 -1.07709,-8.08985 -1.02608,-9.04894 0.56451,-10.61333 1.65556,-1.6283 1.85935,-1.58678 3.82979,0.78019 8.32133,9.99592 12.09137,34.58714 8.24678,53.79216 -2.00436,10.01249 -8.87444,24.28604 -14.90048,30.95784 -4.1928,4.64211 -5.1979,5.25 -8.68056,5.25 -2.71407,0 -4.1327,-0.50551 -4.56261,-1.62582 z M 567,372.62071 c -15.39387,-6.5265 -38.93372,-18.83653 -39.51354,-20.66338 -1.63259,-5.14383 2.09018,-7.67984 9.76299,-6.6507 9.11965,1.2232 38.3207,18.6863 40.20478,24.04366 0.83155,2.3645 0.6767,3.08081 -0.91812,4.24696 -2.50536,1.83197 -3.04119,1.77709 -9.53611,-0.97654 z M 436.06574,324.96482 C 437.71103,324.08428 438,322.82219 438,316.51673 c 0,-7.40605 -0.004,-7.41825 -4.86426,-13.21481 C 425.27923,293.93095 423.21398,292 421.04775,292 c -3.41356,0 -2.42124,3.41664 2.96055,10.19347 6.351,7.99728 6.74483,8.8912 7.51457,17.05653 0.64987,6.89372 1.15432,7.52831 4.54287,5.71482 z M 657.48713,315.25 c 1.06807,-2.66594 3.38143,-17.64768 2.85663,-18.5 C 660.08977,296.3375 658.75394,296 657.37524,296 652.84903,296 651,294.28512 651,290.08726 c 0,-4.77625 1.4226,-5.99467 7.89412,-6.76113 5.58027,-0.6609 5.07991,0.16018 5.52255,-9.06243 0.0473,-0.9855 -0.78151,-1.89687 -1.91667,-2.10761 -3.34625,-0.62124 -4.5,-2.22196 -4.5,-6.24335 0,-4.79382 1.44657,-5.66146 10.90466,-6.5405 C 672.80709,259.00955 676,258.609 676,258.48213 c 0,-0.80884 -3.59048,-10.21876 -6.47976,-16.98213 -1.87966,-4.4 -4.00316,-9.70988 -4.7189,-11.79974 l -1.30134,-3.79974 -17.30962,-0.3773 c -17.63734,-0.38444 -19.15184,-0.71418 -21.24512,-4.6255 -1.20565,-2.25278 0.27706,-6.32701 2.72814,-7.49644 1.00463,-0.47932 10.1516,-0.87819 20.3266,-0.88639 21.75805,-0.0175 23.01687,-0.39022 22.9676,-6.80007 C 670.9498,203.39667 669.02846,195.875 666.69802,189 l -4.23719,-12.5 -8.48041,-0.69092 c -4.66423,-0.38001 -17.20113,-1.1904 -27.85978,-1.80087 -10.65865,-0.61048 -20.67115,-1.36831 -22.25,-1.68408 L 601,171.75 v 12.9435 c 0,15.27168 -1.39765,21.0753 -6.7465,28.0142 -3.33181,4.32225 -3.7323,5.50342 -4.08312,12.0423 -0.3615,6.73773 -0.54804,7.25 -2.64011,7.25 -1.23812,0 -4.33893,0.28617 -6.8907,0.63592 -3.66535,0.5024 -4.63957,0.33364 -4.63957,-0.80365 0,-0.79177 -1.12355,-3.69426 -2.49679,-6.44998 -6.6971,-13.43933 -24.01418,-12.37029 -29.95548,1.84924 -3.47619,8.31968 -0.3041,21.89623 6.83488,29.25336 C 555.22399,261.4742 563.71719,265 570.89443,265 h 4.81941 l 3.31222,8.75 c 5.20358,13.74648 9.834,18.94925 24.83974,27.91009 18.19973,10.86816 30.67155,15.1705 44.27721,15.2741 7.33553,0.0559 8.74907,-0.19892 9.34412,-1.68419 z m -96.60565,-64.75309 c -3.38026,-1.83696 -6.12287,-7.64464 -6.67395,-14.13256 -0.36124,-4.25284 -0.0728,-5.49911 1.67812,-7.25 2.39825,-2.39825 4.39396,-2.69058 5.90096,-0.86435 1.65054,2.00018 5.29562,13.64865 5.91958,18.91704 0.54433,4.59599 0.45524,4.831 -1.8169,4.79292 -1.31411,-0.022 -3.56763,-0.68039 -5.00781,-1.46305 z m -109.22191,51.94786 c 0.66912,-1.74371 -5.76358,-11.70379 -9.0419,-14.00001 -2.14604,-1.50314 -7.62513,-2.00351 -7.60766,-0.69476 0.0212,1.59046 13.16488,16.25 14.56965,16.25 0.81571,0 1.75167,-0.69985 2.07991,-1.55523 z M 260.81582,429.98276 c -55.94815,-6.38177 -98.71157,-46.57406 -110.96615,-104.29435 -2.88487,-13.588 -3.13817,-38.93832 -0.51987,-52.02768 9.10643,-45.52472 39.81575,-83.30714 79.33396,-97.6065 25.47346,-9.21737 56.07618,-9.56967 81.83186,-0.94204 43.2557,14.48977 76.01369,53.57472 83.94052,100.15298 3.08881,18.14997 1.81288,44.31387 -3.01061,61.73483 -13.21671,47.73467 -49.61931,82.75122 -94.97016,91.35413 -10.59603,2.01004 -26.08901,2.71802 -35.63955,1.62863 z m 16.72289,-96.86123 c 5.40254,-2.45406 11.90568,-10.0434 14.545,-16.97444 1.55075,-4.07235 2.1504,-7.87795 2.1504,-13.64709 0,-13.82082 -5.38046,-23.90243 -15.42888,-28.90977 -8.29644,-4.13429 -16.08892,-3.24212 -24.05484,2.75405 -3.19309,2.40354 -3.71753,2.45925 -29.75039,3.16063 -28.49732,0.76777 -30.46587,1.11481 -35.63285,6.28179 -11.38278,11.38277 -8.8441,33.33787 4.65094,40.22253 3.60348,1.83836 5.91634,1.99077 30.20994,1.99077 h 26.3077 l 3.71977,2.52765 c 2.04588,1.39021 4.73784,2.93669 5.98214,3.43662 3.88465,1.56076 12.98578,1.11744 17.30107,-0.84274 z m -77.54209,-19.97107 c -5.32631,-5.3263 -4.77976,-14.9834 1.09628,-19.37049 2.39698,-1.78961 5.02436,-1.97776 34.99931,-2.50635 l 32.40779,-0.5715 3.18325,2.68167 c 6.18461,5.2101 6.63287,12.9087 1.11739,19.19049 L 269.79282,316 H 236.31948 202.84615 Z M 761,418.43127 c -7.1572,-1.24155 -14.15781,-2.87129 -19.84807,-4.62064 l -6.34807,-1.95157 0.66375,-3.67953 c 1.50051,-8.31811 11.97641,-52.4221 14.7628,-62.15201 1.64947,-5.75986 3.29142,-12.50986 3.64877,-15 l 0.64975,-4.52752 7.48553,-0.0648 c 9.69709,-0.0839 14.30207,-1.71579 20.07229,-7.11316 6.25181,-5.84783 9.11245,-12.60312 9.21766,-21.76713 0.10726,-9.34261 -2.30519,-16.22727 -7.84546,-22.38938 -10.57859,-11.76594 -25.05521,-11.97833 -37.71183,-0.55327 -3.72517,3.36269 -3.82485,3.38767 -13.5,3.38364 -5.36092,-0.002 -15.44633,-0.29473 -22.41204,-0.65001 l -12.66491,-0.64595 2.5037,-3.78335 c 5.30474,-8.01601 4.16291,-18.70463 -3.87677,-36.29025 -4.38554,-9.59271 -4.36761,-8.75886 -0.41131,-19.12638 0.83953,-2.2 1.54618,-6.55168 1.57032,-9.67041 l 0.0439,-5.6704 6.54746,-5.90933 c 35.32575,-31.88278 92.45111,-33.79007 133.97763,-4.47323 36.12044,25.50027 56.01977,70.0433 51.58434,115.4674 -3.1446,32.20451 -14.461,57.0387 -35.64385,78.22155 -16.0011,16.00109 -31.55709,24.96938 -53.12188,30.62565 -7.57925,1.98798 -32.74478,3.48475 -39.3437,2.34004 z"
       id="path1" />
  </g>
</svg>
